<svg width="397" height="372" viewBox="0 0 397 372" fill="none" xmlns="http://www.w3.org/2000/svg">
<path d="M342 138.756C339.9 132.357 337.156 126.159 333.806 120.245C316.528 90.1579 286.229 67.4585 253.088 54.0293C226.774 43.3826 194.236 37.8175 166.319 47.4077C152.202 52.2586 138.91 61.5437 131.344 73.9313C121.482 90.1058 122.411 110.112 114.582 127.112C108.23 140.869 92.4455 149.135 80.075 157.616C60.7728 170.8 41.7565 186.387 35.0631 208.685C26.1385 238.407 28.7826 273.792 46.8461 300.226C60.3441 319.95 83.4495 325.872 107.293 326.266C129.795 326.646 157.315 321.319 178.317 330.939C214.094 347.307 261.305 365.683 301.339 352.73C342.627 339.376 362.85 313.365 368.829 279.625C374.808 245.885 358.332 217.776 353.076 191.089C349.805 174.208 347.637 155.57 342 138.756Z" fill="#0088F0"/>
<path opacity="0.8" d="M342 138.756C339.9 132.357 337.156 126.159 333.806 120.245C316.528 90.1579 286.229 67.4585 253.088 54.0293C226.774 43.3826 194.236 37.8175 166.319 47.4077C152.202 52.2586 138.91 61.5437 131.344 73.9313C121.482 90.1058 122.411 110.112 114.582 127.112C108.23 140.869 92.4455 149.135 80.075 157.616C60.7728 170.8 41.7565 186.387 35.0631 208.685C26.1385 238.407 28.7826 273.792 46.8461 300.226C60.3441 319.95 83.4495 325.872 107.293 326.266C129.795 326.646 157.315 321.319 178.317 330.939C214.094 347.307 261.305 365.683 301.339 352.73C342.627 339.376 362.85 313.365 368.829 279.625C374.808 245.885 358.332 217.776 353.076 191.089C349.805 174.208 347.637 155.57 342 138.756Z" fill="white"/>
<path d="M266.188 100.537C266.86 100.885 267.48 101.315 268.031 101.816M258.161 120.245L258.685 123.184L262.179 123.474L263.227 120.692C264.372 120.595 265.501 120.365 266.585 120.007L268.793 122.105L271.826 120.461L270.992 117.634C271.87 116.934 272.652 116.134 273.319 115.253L276.399 115.789L277.884 112.813L275.462 110.945C275.75 109.9 275.896 108.825 275.899 107.746L278.773 106.526L278.162 103.29L274.986 103.059C274.583 102.064 274.049 101.119 273.398 100.247L275.034 97.6575L272.556 95.3362L269.777 96.8837C268.175 95.8703 266.367 95.1787 264.465 94.8526L263.671 91.8766H260.162L259.368 94.8526C258.272 95.0424 257.206 95.3572 256.192 95.79L253.691 93.7589L250.817 95.6412L252 98.5428C251.227 99.28 250.553 100.102 249.991 100.991L246.688 100.671L245.489 103.758L248.22 105.492C248.092 106.212 248.028 106.941 248.03 107.672C248.03 107.984 248.03 108.289 248.03 108.594L245.163 110.082L246.069 113.252L249.316 113.215C249.799 114.162 250.398 115.054 251.102 115.871L249.697 118.609L252.381 120.714L255.033 119.04L258.161 120.245ZM269.595 103.699C270.535 105.265 270.898 107.078 270.629 108.858C270.359 110.637 269.472 112.284 268.105 113.544C266.737 114.804 264.965 115.608 263.062 115.83C261.159 116.052 259.23 115.682 257.574 114.775C255.918 113.868 254.627 112.476 253.9 110.813C253.172 109.15 253.049 107.309 253.55 105.574C254.05 103.839 255.146 102.307 256.668 101.213C258.19 100.12 260.054 99.5267 261.972 99.5249C262.392 99.5242 262.812 99.5541 263.227 99.6142L269.595 103.699Z" stroke="black" stroke-miterlimit="10"/>
<path d="M274.494 268.086C275.166 268.434 275.785 268.864 276.336 269.365M266.435 287.824L266.959 290.763L270.452 291.053L271.5 288.27C272.646 288.174 273.774 287.944 274.859 287.586L277.066 289.684L280.099 288.04L279.305 285.212C280.183 284.512 280.965 283.713 281.632 282.832L284.713 283.367L286.197 280.391L283.815 278.524C284.103 277.479 284.249 276.404 284.252 275.325L287.126 274.105L286.515 270.868L283.339 270.637C282.939 269.641 282.405 268.696 281.751 267.825L283.387 265.236L280.909 262.915L278.13 264.462C276.528 263.449 274.72 262.757 272.818 262.431L272.024 259.455H268.515L267.721 262.431C266.625 262.621 265.559 262.936 264.545 263.369L262.02 261.36L259.146 263.242L260.329 266.144C259.556 266.881 258.882 267.703 258.32 268.591L255.017 268.272L253.818 271.359L256.549 273.093C256.421 273.813 256.357 274.542 256.359 275.273C256.359 275.585 256.359 275.89 256.359 276.195L253.492 277.683L254.398 280.853L257.645 280.815C258.128 281.763 258.727 282.655 259.432 283.471L258.05 286.224L260.734 288.33L263.338 286.589L266.435 287.824ZM277.9 271.248C278.84 272.814 279.203 274.627 278.934 276.407C278.665 278.186 277.778 279.833 276.41 281.093C275.043 282.353 273.271 283.156 271.367 283.379C269.464 283.601 267.536 283.23 265.88 282.324C264.224 281.417 262.932 280.025 262.205 278.362C261.477 276.699 261.354 274.858 261.855 273.123C262.355 271.388 263.451 269.855 264.973 268.762C266.496 267.669 268.36 267.075 270.278 267.074C270.698 267.073 271.117 267.103 271.532 267.163L277.9 271.248Z" stroke="black" stroke-miterlimit="10"/>
<path d="M301.228 99.6514C300.099 101.313 298.37 102.537 296.356 103.1C294.342 103.663 292.179 103.526 290.264 102.715C288.349 101.905 286.81 100.474 285.929 98.6861C285.049 96.898 284.886 94.8724 285.47 92.9809C286.055 91.0894 287.347 89.4588 289.111 88.3883C290.875 87.3177 292.992 86.879 295.073 87.1526C297.154 87.4262 299.06 88.3937 300.442 89.8778C301.823 91.3618 302.587 93.2628 302.594 95.232C302.594 95.4304 302.594 95.6313 302.594 95.8347M283.458 84.9946L283.919 86.1255C283.688 86.3412 283.466 86.5719 283.252 86.8025L283.458 84.9946ZM282.084 88.2905C282.021 88.3798 281.965 88.4691 281.91 88.5583L278.607 88.2459L277.408 91.326L280.139 93.0595C280.009 93.7798 279.942 94.5089 279.941 95.2395C279.941 95.5519 279.941 95.857 279.941 96.162L277.066 97.65L277.98 100.819H281.227C281.705 101.772 282.305 102.666 283.013 103.483L281.608 106.213L284.292 108.326L286.896 106.578C287.881 107.11 288.932 107.527 290.024 107.82L290.549 110.759L294.034 111.042L295.09 108.259C296.235 108.166 297.364 107.938 298.449 107.582L300.648 109.673L303.681 108.036L302.887 105.209C303.763 104.507 304.545 103.708 305.214 102.828L308.294 103.356L309.779 100.38L307.358 98.5056C307.641 97.4623 307.787 96.3904 307.794 95.3139L310.668 94.0863L310.057 90.8573L306.881 90.6267C306.476 89.6296 305.943 88.6827 305.293 87.8069L306.929 85.2252L304.451 82.9039L301.672 84.4515C300.074 83.4318 298.264 82.7397 296.361 82.4203L295.567 79.4443H292.065L291.271 82.4203C290.176 82.6136 289.11 82.9283 288.095 83.3578L285.586 81.3267L282.72 83.209L283.085 84.1018L282.084 88.2905ZM302.419 96.9283C302.301 97.4676 302.122 97.9937 301.887 98.4982L302.419 96.9283Z" stroke="black" stroke-miterlimit="10"/>
<path d="M94.9068 155.578C98.9067 155.751 102.7 157.295 105.564 159.916C108.429 162.537 110.167 166.053 110.447 169.796C110.727 173.539 109.529 177.248 107.082 180.218C104.635 183.188 101.109 185.212 97.1744 185.906C93.2392 186.6 89.1692 185.915 85.7376 183.981C82.306 182.048 79.752 179 78.5609 175.418C77.3697 171.836 77.6244 167.969 79.2766 164.551C80.9288 161.133 83.8633 158.403 87.5226 156.88M74.0246 186.216L71.3965 191.327L76.4145 195.27L81.2738 192.004C83.1168 193.002 85.0852 193.782 87.1335 194.325L88.1022 199.816L94.6289 200.352L96.5901 195.144C98.7324 194.965 100.842 194.535 102.871 193.864L106.984 197.785L112.653 194.72L111.065 189.437C112.708 188.123 114.172 186.623 115.424 184.973L121.18 185.963L123.951 180.405L119.433 176.908C119.96 174.963 120.227 172.963 120.227 170.956L125.595 168.665L124.459 162.624L118.536 162.192C117.779 160.333 116.785 158.567 115.575 156.932L118.624 152.096L113.995 147.758L108.794 150.653C105.807 148.748 102.425 147.455 98.8689 146.858L97.3682 141.293H90.8177L89.3091 146.888C87.2803 147.252 85.3052 147.841 83.4256 148.644L78.741 144.849L73.3815 148.368L75.5888 153.792C74.1488 155.171 72.8881 156.704 71.8332 158.36L65.6638 157.765L63.4247 163.531L68.5301 166.775C68.2875 168.122 68.1654 169.486 68.1649 170.852C68.1649 171.432 68.1887 172.005 68.2363 172.571L62.861 175.383L64.5601 181.335L70.6342 181.268C71.3057 182.609 72.1028 183.891 73.0162 185.1L74.0246 186.216ZM88.6898 156.441C89.4031 156.206 90.1326 156.017 90.8733 155.875L88.6898 156.441Z" stroke="black" stroke-miterlimit="10"/>
<path d="M157.911 169.699L151.416 165.771" stroke="#263238" stroke-width="3" stroke-linecap="round" stroke-linejoin="round"/>
<path d="M169.193 157.884L167.51 156.567" stroke="#263238" stroke-width="3" stroke-linecap="round" stroke-linejoin="round"/>
<path d="M150.233 192.525L136.79 189.37" stroke="#263238" stroke-width="3" stroke-linecap="round" stroke-linejoin="round"/>
<path d="M222.884 269.945C222.785 269.945 222.686 269.932 222.59 269.908C222.28 269.833 222.015 269.645 221.852 269.387C221.439 268.71 221.216 268.346 224.567 264.745C217.342 268.889 216.571 268.718 216.151 268.621C215.821 268.53 215.539 268.329 215.357 268.056C214.69 266.977 214.563 266.761 227.934 256.509C225.79 257.811 223.559 259.21 221.582 260.445C209.814 267.803 206.154 269.893 204.534 269.544C204.338 269.502 204.153 269.423 203.991 269.312C203.828 269.2 203.692 269.059 203.59 268.896C202.875 267.736 202.875 267.736 218.676 257.037L221.804 254.924C219.978 256.062 218.159 257.223 216.492 258.287C204.058 266.211 198.397 269.633 196.277 269.187C196.056 269.14 195.847 269.049 195.667 268.921C195.486 268.793 195.337 268.63 195.229 268.443C194.435 267.185 194.276 266.903 217.254 252.275L187.035 268.643C186.765 268.784 186.448 268.82 186.151 268.743C185.854 268.667 185.601 268.484 185.447 268.234C184.915 267.371 185.328 266.315 187.511 264.514C184.033 266.389 182.017 267.141 181.024 266.925C180.817 266.88 180.623 266.797 180.451 266.681C180.279 266.565 180.134 266.418 180.024 266.248C179.365 265.176 179.619 264.187 188.027 258.89C179.357 263.971 176.157 265.467 174.91 265.191C174.725 265.151 174.55 265.075 174.398 264.969C174.245 264.862 174.116 264.728 174.021 264.574C173.441 263.644 173.981 263.309 175.974 262.074L180.365 259.388L187.082 255.318C179.682 258.919 178.571 258.674 177.951 258.533C177.743 258.488 177.546 258.404 177.372 258.287C177.199 258.169 177.053 258.02 176.943 257.848C176.796 257.596 176.759 257.301 176.839 257.024C176.919 256.746 177.11 256.509 177.372 256.36C200.676 243.414 236.652 222.649 245.322 215.782C236.676 219.465 210.823 234.509 196.094 243.102C177.125 254.15 177.038 254.128 176.244 253.935C176.08 253.9 175.925 253.835 175.789 253.743C175.652 253.651 175.537 253.534 175.45 253.399C174.807 252.357 174.839 251.688 182.429 247.283C178.936 248.823 176.633 249.515 175.617 249.292C175.394 249.243 175.185 249.152 175.002 249.024C174.819 248.896 174.666 248.734 174.553 248.548C174.401 248.301 174.357 248.008 174.429 247.731C174.501 247.454 174.685 247.213 174.942 247.06C198.46 233.021 231.546 213.141 245.044 204.741C241.289 206.534 236.247 209.205 230.641 212.352C226.107 215.083 220.732 218.26 214.372 221.965C205.972 226.868 197.476 231.726 190.401 235.744C173.314 245.847 173.108 245.803 172.274 245.609C172.11 245.572 171.955 245.505 171.819 245.412C171.683 245.319 171.568 245.201 171.48 245.066C171.334 244.814 171.297 244.519 171.376 244.242C171.456 243.965 171.647 243.727 171.909 243.578C177.054 240.714 182.731 237.522 188.623 234.174L191.719 232.344C179.38 238.958 172.56 241.852 170.551 241.391C170.319 241.348 170.099 241.26 169.906 241.132C169.713 241.003 169.551 240.838 169.432 240.647C168.693 239.456 169.741 237.939 178.444 232.612C172.83 235.818 170.607 236.771 169.662 236.555C169.482 236.517 169.312 236.444 169.163 236.342C169.014 236.239 168.889 236.109 168.796 235.96C168.296 235.149 167.891 234.472 173.703 230.521C170.575 232.009 168.598 232.612 167.653 232.396C167.439 232.352 167.237 232.268 167.059 232.147C166.881 232.027 166.732 231.873 166.621 231.696C166.541 231.569 166.489 231.427 166.469 231.28C166.448 231.133 166.46 230.984 166.502 230.841C166.585 230.556 166.785 230.313 167.058 230.164C192.823 216.437 231.84 194.697 243.718 185.926C230.689 192.666 194.768 212.427 169.702 226.355C169.566 226.429 169.416 226.478 169.261 226.499C169.105 226.519 168.947 226.51 168.794 226.473C168.642 226.435 168.5 226.37 168.375 226.281C168.25 226.192 168.145 226.08 168.066 225.953C167.944 225.748 167.868 225.523 167.842 225.29C167.816 225.057 167.841 224.822 167.915 224.599C168.357 223.655 169.026 222.82 169.868 222.158C168.018 222.865 166.78 223.126 166.073 222.962C165.853 222.912 165.647 222.82 165.467 222.692C165.286 222.564 165.136 222.403 165.025 222.218C164.31 221.065 165.676 220.172 167.74 218.825C169.328 217.821 171.575 216.43 174.72 214.584C180.587 211.147 188.638 206.594 197.166 201.78C206.75 196.364 218.136 189.928 227.179 184.601C207.829 195.017 177.356 211.698 162.722 219.718C162.445 219.865 162.117 219.905 161.809 219.83C161.658 219.792 161.516 219.727 161.392 219.638C161.268 219.548 161.164 219.436 161.087 219.309C160.475 218.312 160.293 218.022 170.813 211.817C166.692 213.937 164.088 214.852 162.762 214.562C162.512 214.513 162.275 214.416 162.067 214.276C161.859 214.137 161.685 213.958 161.555 213.751C160.761 212.471 160.761 212.471 179.865 202.078C188.702 197.272 199.246 191.528 208.949 186.007C217.095 180.933 223.471 177.079 228.307 174.401C230.843 172.82 233.25 171.064 235.508 169.148C225.591 173.322 186.431 195.508 161.666 209.942C161.399 210.1 161.075 210.152 160.767 210.086C160.459 210.02 160.191 209.843 160.023 209.592C159.854 209.342 159.799 209.039 159.869 208.75C159.939 208.461 160.128 208.21 160.396 208.052L168.082 203.469C161.73 206.527 159.348 207.04 158.371 206.81C158.15 206.761 157.941 206.67 157.759 206.542C157.578 206.414 157.426 206.252 157.315 206.066C157.161 205.819 157.116 205.526 157.188 205.248C157.261 204.97 157.446 204.73 157.704 204.578L174.624 194.415C160.793 201.736 159.673 201.475 158.991 201.311C158.809 201.272 158.638 201.198 158.488 201.094C158.337 200.991 158.211 200.86 158.117 200.709C157.969 200.459 157.928 200.166 158.003 199.889C158.078 199.612 158.264 199.373 158.522 199.221C176.355 188.887 201.692 173.925 216.484 164.543C204.534 170.993 187.106 180.576 174.847 187.332L161.182 194.772C158.149 196.431 156.68 197.242 155.894 197.614L155.687 197.733C155.14 197.978 155.005 197.941 154.774 197.882C154.55 197.826 154.349 197.709 154.194 197.547C154.039 197.385 153.938 197.185 153.904 196.97C153.869 196.755 153.903 196.535 153.999 196.338C154.096 196.14 154.252 195.973 154.449 195.858C173.362 184.899 201.295 168.382 213.808 160.258C207.147 163.873 197.198 169.818 189.194 174.617C166.756 188.009 159.935 191.863 157.958 191.401C157.77 191.36 157.593 191.283 157.438 191.175C157.282 191.068 157.151 190.932 157.053 190.776C156.561 189.966 156.204 189.393 163.659 184.356C161.627 185.196 160.253 185.516 159.451 185.338C159.224 185.29 159.01 185.199 158.822 185.071C158.634 184.943 158.475 184.781 158.355 184.594C158.208 184.345 158.167 184.053 158.241 183.776C158.314 183.5 158.497 183.261 158.752 183.106C173.402 174.468 195.665 160.927 203.32 155.325C196.618 158.398 181.993 167.229 173.386 172.392C159.324 180.792 158.8 181 157.903 180.792C157.738 180.756 157.583 180.69 157.447 180.596C157.31 180.503 157.195 180.385 157.109 180.249C156.474 179.23 155.918 178.322 169.686 169.453C167.987 170.465 166.248 171.514 164.469 172.586C164.322 172.697 164.15 172.776 163.966 172.816C163.781 172.856 163.59 172.856 163.405 172.816C163.249 172.781 163.101 172.716 162.973 172.625C162.845 172.534 162.738 172.42 162.659 172.288C161.809 170.912 163.032 169.729 172.695 162.787C172.518 162.752 172.35 162.682 172.204 162.582C172.058 162.482 171.935 162.354 171.845 162.207C171.698 161.95 171.663 161.65 171.747 161.37C171.832 161.089 172.029 160.851 172.298 160.704C172.521 160.589 172.775 160.54 173.028 160.563C174.284 159.879 175.501 159.134 176.673 158.331C180.548 155.779 181.643 155.169 182.588 155.355C182.773 155.392 182.947 155.465 183.1 155.569C183.253 155.673 183.381 155.805 183.477 155.957C184.16 157.073 183.628 157.743 177.125 162.46C178.936 161.411 180.802 160.325 182.683 159.253C201.041 148.733 202.462 149.045 203.327 149.239C203.518 149.277 203.698 149.353 203.855 149.46C204.012 149.568 204.144 149.706 204.241 149.864C204.39 150.112 204.432 150.405 204.358 150.682C204.284 150.959 204.1 151.198 203.844 151.352C194.887 156.56 185.582 162.199 177.777 167.073C195.896 156.233 204.606 151.449 207.059 152.029C207.272 152.073 207.473 152.158 207.649 152.279C207.825 152.399 207.973 152.552 208.084 152.728C208.838 153.956 209.386 154.849 184.319 170.309L180.714 172.541C185.764 169.565 190.878 166.44 195.006 163.911C211.085 154.134 213.689 152.699 214.904 152.966C215.071 153.007 215.227 153.079 215.363 153.177C215.499 153.276 215.613 153.399 215.698 153.539C215.85 153.787 215.894 154.079 215.822 154.356C215.749 154.634 215.566 154.874 215.309 155.027C199.762 164.312 177.054 178.173 165.827 185.621C171.861 182.287 180.413 177.176 187.86 172.727C211.466 158.591 219.168 154.313 221.343 154.804C221.538 154.848 221.721 154.927 221.882 155.039C222.043 155.15 222.178 155.29 222.28 155.451C222.86 156.396 223.281 157.066 209.473 165.704C228.823 155.183 229.196 155.288 229.807 155.422C229.963 155.459 230.109 155.525 230.237 155.616C230.365 155.706 230.473 155.82 230.554 155.95C231.348 157.237 231.912 158.182 195.403 180.041C192.751 181.633 190.092 183.217 187.463 184.765C201.914 176.759 219.136 166.909 232.181 159.275C232.318 159.197 232.47 159.145 232.628 159.122C232.786 159.099 232.947 159.106 233.102 159.142C233.415 159.216 233.683 159.403 233.849 159.662C234.413 160.585 233.579 161.15 232.698 161.716C232.158 162.065 231.364 162.571 230.316 163.204C228.394 164.402 225.552 166.18 221.883 168.412C215.706 172.184 207.075 177.414 196.229 183.961C185.78 190.263 175.252 196.609 168.034 200.932C177.57 196.208 196.118 186 231.848 164.61C236.993 161.537 236.993 161.537 237.517 161.634C237.674 161.67 237.822 161.736 237.952 161.826C238.081 161.917 238.19 162.031 238.271 162.162C238.565 162.638 238.732 162.906 237.779 163.702C236.509 164.744 233.349 166.678 226.139 171.068C236.35 165.823 237.303 166.038 237.922 166.187C238.102 166.225 238.272 166.298 238.421 166.4C238.57 166.503 238.695 166.633 238.788 166.782C239.216 167.482 239.32 168.323 237.732 169.989C238.358 169.806 239.021 169.76 239.669 169.855C239.928 169.906 240.173 170.007 240.387 170.152C240.602 170.296 240.782 170.482 240.915 170.696C241.709 171.976 242.106 172.63 218.517 186.573C243.496 173.017 243.742 173.077 244.338 173.225C244.49 173.262 244.634 173.327 244.759 173.416C244.885 173.506 244.99 173.618 245.068 173.746C245.862 174.981 244.433 176.224 241.019 178.56C238.819 180.048 235.715 182.012 231.554 184.512C245.425 176.395 248.903 174.714 250.142 174.996C250.317 175.036 250.482 175.109 250.626 175.21C250.771 175.311 250.892 175.438 250.983 175.584C251.063 175.711 251.115 175.851 251.135 175.997C251.156 176.142 251.144 176.291 251.102 176.432C251.062 176.576 250.992 176.71 250.895 176.828C250.798 176.946 250.677 177.044 250.539 177.117C242.44 181.417 234.206 185.866 226.25 190.256L218.009 195.136C201.803 204.749 189.98 211.661 181.683 216.184C179.055 217.873 176.808 219.376 175.006 220.648C182.39 216.556 194.967 209.6 207.56 202.718C247.26 180.948 247.863 181.104 248.617 181.29C248.773 181.328 248.919 181.394 249.047 181.485C249.175 181.575 249.283 181.689 249.364 181.819C249.478 182.009 249.551 182.219 249.577 182.437C249.603 182.654 249.582 182.874 249.514 183.083C249.28 183.804 248.831 184.447 248.22 184.936C250.944 183.664 252.651 183.143 253.492 183.329C253.697 183.373 253.89 183.456 254.059 183.572C254.229 183.689 254.371 183.836 254.477 184.006C255.112 185.033 254.223 185.591 252.262 186.811C251.079 187.555 249.332 188.589 246.91 190.003L246.442 190.278C250.142 188.619 252.738 187.838 254.04 188.135C254.306 188.187 254.558 188.289 254.779 188.437C255.001 188.584 255.187 188.773 255.327 188.991C256.422 190.769 255.327 191.9 216.587 213.372C200.318 222.456 178.825 234.36 172.965 238.824C176.197 237.76 184.248 234.114 204.256 222.768C220.565 213.521 238.526 202.725 247.132 197.539C253.111 193.946 253.103 193.953 253.635 194.072C253.952 194.148 254.223 194.338 254.39 194.601C254.874 195.389 255.366 196.185 248.832 200.746C249.754 200.355 250.768 200.191 251.777 200.27C252 200.319 252.209 200.41 252.392 200.538C252.575 200.666 252.728 200.828 252.841 201.014C253.54 202.152 253.54 202.152 240.693 210.039C234.341 213.922 225.528 219.287 214.412 225.983C203.693 232.44 192.886 238.921 185.486 243.347C200.477 235.818 228.569 219.123 241.066 211.698C252.182 205.113 252.182 205.113 252.786 205.255C252.941 205.292 253.087 205.358 253.215 205.449C253.343 205.539 253.451 205.653 253.532 205.783C254.382 207.167 253.032 209.131 247.807 212.769C247.96 212.749 248.115 212.749 248.268 212.769C248.462 212.813 248.646 212.892 248.806 213.004C248.967 213.115 249.103 213.255 249.205 213.416C250.039 214.77 250.983 216.303 215.746 236.979C225.877 231.131 236.39 224.911 244.878 219.755C245.013 219.672 245.166 219.616 245.325 219.59C245.485 219.565 245.649 219.57 245.806 219.605C245.964 219.641 246.112 219.706 246.242 219.797C246.372 219.888 246.48 220.003 246.561 220.135C247.14 221.087 246.338 221.623 244.973 222.515C244.179 223.044 242.98 223.817 241.408 224.8C239.836 225.782 237.882 227.032 235.524 228.46C238.811 226.898 240.844 226.265 241.876 226.503C242.1 226.551 242.311 226.641 242.496 226.769C242.68 226.898 242.834 227.06 242.948 227.247C243.615 228.326 243.464 228.735 235.429 233.601C237.12 232.924 238.319 232.679 239.089 232.857C239.329 232.905 239.554 233 239.753 233.134C239.951 233.269 240.117 233.44 240.241 233.638C241.177 235.126 240.471 235.826 218.953 248.035C212.792 251.532 205.035 255.929 198.754 259.723L241.003 236.875C241.138 236.8 241.288 236.751 241.443 236.732C241.599 236.713 241.757 236.723 241.908 236.763C242.211 236.839 242.471 237.023 242.63 237.276C243.218 238.236 242.384 238.809 241.003 239.761C240.169 240.334 238.946 241.145 237.263 242.231C234.127 244.27 229.768 247.03 225.155 249.962C219.779 253.369 213.014 257.662 207.472 261.27C210.021 259.693 212.673 258.004 215.031 256.501C227.314 248.675 232.499 245.542 234.524 245.959C234.736 246.003 234.936 246.086 235.112 246.205C235.289 246.324 235.437 246.476 235.548 246.651C236.239 247.782 236.271 247.834 222.185 257.394C232.404 251.026 235.747 249.21 237.271 249.53C237.467 249.572 237.652 249.651 237.815 249.762C237.977 249.874 238.114 250.015 238.216 250.177C238.772 251.085 238.772 251.085 231.665 256.524C229.522 258.161 226.544 260.437 223.86 262.543C226.036 261.285 228.434 259.857 230.713 258.473C230.848 258.39 231.001 258.334 231.16 258.308C231.32 258.282 231.484 258.287 231.641 258.323C231.799 258.358 231.947 258.424 232.077 258.515C232.207 258.606 232.315 258.721 232.396 258.852C232.84 259.596 232.674 259.745 231.046 261.382C229.72 262.714 228.585 263.882 227.624 264.879C234.833 260.854 235.095 260.921 235.604 261.04C235.758 261.077 235.903 261.144 236.03 261.234C236.156 261.325 236.263 261.438 236.342 261.568C236.421 261.695 236.473 261.835 236.494 261.981C236.515 262.126 236.505 262.274 236.464 262.416C236.424 262.558 236.353 262.691 236.257 262.807C236.161 262.924 236.042 263.021 235.905 263.093C235.79 263.158 235.664 263.204 235.532 263.227C234.476 263.674 228.608 266.91 223.44 269.841C223.265 269.916 223.075 269.951 222.884 269.945ZM234.341 262.632C234.467 262.832 234.656 262.99 234.881 263.086C234.658 262.987 234.47 262.829 234.341 262.632ZM205.027 251.271C198.166 255.281 191.417 259.299 187.019 262.163C191.807 259.492 198.762 255.192 205.027 251.271ZM234.556 231.458C226.766 235.506 214.166 243.109 204.59 248.905C208.115 246.844 212.133 244.516 216.698 241.882C222.987 238.259 229.76 234.36 234.556 231.458ZM234.047 236.666C229.815 238.779 223.392 242.618 217.127 246.45L217.786 246.078C223.638 242.745 229.99 239.136 234.047 236.651V236.666ZM195.006 219.956C189.766 223.029 185.002 225.923 181.032 228.408C185.145 225.945 190.02 222.992 195.006 219.956ZM251.531 190.695C249.229 191.439 244.346 193.522 234.016 199.332C223.686 205.143 211.204 212.784 200.088 219.554C195.237 222.53 191.155 224.986 187.71 227.054C194.395 223.2 203.375 218.163 215.372 211.512C229.974 203.395 246.299 194.348 251.531 190.695ZM244.076 212.524L242.392 213.528C236.834 216.836 231.57 219.949 226.6 222.865C233.23 219.13 239.494 215.477 244.076 212.524ZM191.417 207.576C184.137 211.698 177.062 215.76 172.361 218.535C174.743 217.397 177.61 215.872 180.849 214.071C184.033 212.04 187.598 209.845 191.417 207.576ZM210.061 187.919C207.012 189.824 204.01 191.714 201.2 193.477C195.642 196.989 190.703 200.054 186.423 202.688L190.798 200.158C206.877 190.873 230.093 177.451 236.922 172.586C234.396 173.643 231.948 174.856 229.593 176.216C226.878 177.995 223.424 180.13 219.049 182.719C216.198 184.393 213.173 186.134 210.061 187.905V187.919Z" fill="#0088F0"/>
<g opacity="0.4">
<path opacity="0.4" d="M222.884 269.945C222.785 269.945 222.686 269.932 222.59 269.908C222.28 269.833 222.015 269.645 221.852 269.387C221.439 268.71 221.216 268.346 224.567 264.745C217.342 268.889 216.571 268.718 216.151 268.621C215.821 268.53 215.539 268.329 215.357 268.056C214.69 266.977 214.563 266.761 227.934 256.509C225.79 257.811 223.559 259.21 221.582 260.445C209.814 267.803 206.154 269.893 204.534 269.544C204.338 269.502 204.153 269.423 203.991 269.312C203.828 269.2 203.692 269.059 203.59 268.896C202.875 267.736 202.875 267.736 218.676 257.037L221.804 254.924C219.978 256.062 218.159 257.223 216.492 258.287C204.058 266.211 198.397 269.633 196.277 269.187C196.056 269.14 195.847 269.049 195.667 268.921C195.486 268.793 195.337 268.63 195.229 268.443C194.435 267.185 194.276 266.903 217.254 252.275L187.035 268.643C186.765 268.784 186.448 268.82 186.151 268.743C185.854 268.667 185.601 268.484 185.447 268.234C184.915 267.371 185.328 266.315 187.511 264.514C184.033 266.389 182.017 267.141 181.024 266.925C180.817 266.88 180.623 266.797 180.451 266.681C180.279 266.565 180.134 266.418 180.024 266.248C179.365 265.176 179.619 264.187 188.027 258.89C179.357 263.971 176.157 265.467 174.91 265.191C174.725 265.151 174.55 265.075 174.398 264.969C174.245 264.862 174.116 264.728 174.021 264.574C173.441 263.644 173.981 263.309 175.974 262.074L180.365 259.388L187.082 255.318C179.682 258.919 178.571 258.674 177.951 258.533C177.743 258.488 177.546 258.404 177.372 258.287C177.199 258.169 177.053 258.02 176.943 257.848C176.796 257.596 176.759 257.301 176.839 257.024C176.919 256.746 177.11 256.509 177.372 256.36C200.676 243.414 236.652 222.649 245.322 215.782C236.676 219.465 210.823 234.509 196.094 243.102C177.125 254.15 177.038 254.128 176.244 253.935C176.08 253.9 175.925 253.835 175.789 253.743C175.652 253.651 175.537 253.534 175.45 253.399C174.807 252.357 174.839 251.688 182.429 247.283C178.936 248.823 176.633 249.515 175.617 249.292C175.394 249.243 175.185 249.152 175.002 249.024C174.819 248.896 174.666 248.734 174.553 248.548C174.401 248.301 174.357 248.008 174.429 247.731C174.501 247.454 174.685 247.213 174.942 247.06C198.46 233.021 231.546 213.141 245.044 204.741C241.289 206.534 236.247 209.205 230.641 212.352C226.107 215.083 220.732 218.26 214.372 221.965C205.972 226.868 197.476 231.726 190.401 235.744C173.314 245.847 173.108 245.803 172.274 245.609C172.11 245.572 171.955 245.505 171.819 245.412C171.683 245.319 171.568 245.201 171.48 245.066C171.334 244.814 171.297 244.519 171.376 244.242C171.456 243.965 171.647 243.727 171.909 243.578C177.054 240.714 182.731 237.522 188.623 234.174L191.719 232.344C179.38 238.958 172.56 241.852 170.551 241.391C170.319 241.348 170.099 241.26 169.906 241.132C169.713 241.003 169.551 240.838 169.432 240.647C168.693 239.456 169.741 237.939 178.444 232.612C172.83 235.818 170.607 236.771 169.662 236.555C169.482 236.517 169.312 236.444 169.163 236.342C169.014 236.239 168.889 236.109 168.796 235.96C168.296 235.149 167.891 234.472 173.703 230.521C170.575 232.009 168.598 232.612 167.653 232.396C167.439 232.352 167.237 232.268 167.059 232.147C166.881 232.027 166.732 231.873 166.621 231.696C166.541 231.569 166.489 231.427 166.469 231.28C166.448 231.133 166.46 230.984 166.502 230.841C166.585 230.556 166.785 230.313 167.058 230.164C192.823 216.437 231.84 194.697 243.718 185.926C230.689 192.666 194.768 212.427 169.702 226.355C169.566 226.429 169.416 226.478 169.261 226.499C169.105 226.519 168.947 226.51 168.794 226.473C168.642 226.435 168.5 226.37 168.375 226.281C168.25 226.192 168.145 226.08 168.066 225.953C167.944 225.748 167.868 225.523 167.842 225.29C167.816 225.057 167.841 224.822 167.915 224.599C168.357 223.655 169.026 222.82 169.868 222.158C168.018 222.865 166.78 223.126 166.073 222.962C165.853 222.912 165.647 222.82 165.467 222.692C165.286 222.564 165.136 222.403 165.025 222.218C164.31 221.065 165.676 220.172 167.74 218.825C169.328 217.821 171.575 216.43 174.72 214.584C180.587 211.147 188.638 206.594 197.166 201.78C206.75 196.364 218.136 189.928 227.179 184.601C207.829 195.017 177.356 211.698 162.722 219.718C162.445 219.865 162.117 219.905 161.809 219.83C161.658 219.792 161.516 219.727 161.392 219.638C161.268 219.548 161.164 219.436 161.087 219.309C160.475 218.312 160.293 218.022 170.813 211.817C166.692 213.937 164.088 214.852 162.762 214.562C162.512 214.513 162.275 214.416 162.067 214.276C161.859 214.137 161.685 213.958 161.555 213.751C160.761 212.471 160.761 212.471 179.865 202.078C188.702 197.272 199.246 191.528 208.949 186.007C217.095 180.933 223.471 177.079 228.307 174.401C230.843 172.82 233.25 171.064 235.508 169.148C225.591 173.322 186.431 195.508 161.666 209.942C161.399 210.1 161.075 210.152 160.767 210.086C160.459 210.02 160.191 209.843 160.023 209.592C159.854 209.342 159.799 209.039 159.869 208.75C159.939 208.461 160.128 208.21 160.396 208.052L168.082 203.469C161.73 206.527 159.348 207.04 158.371 206.81C158.15 206.761 157.941 206.67 157.759 206.542C157.578 206.414 157.426 206.252 157.315 206.066C157.161 205.819 157.116 205.526 157.188 205.248C157.261 204.97 157.446 204.73 157.704 204.578L174.624 194.415C160.793 201.736 159.673 201.475 158.991 201.311C158.809 201.272 158.638 201.198 158.488 201.094C158.337 200.991 158.211 200.86 158.117 200.709C157.969 200.459 157.928 200.166 158.003 199.889C158.078 199.612 158.264 199.373 158.522 199.221C176.355 188.887 201.692 173.925 216.484 164.543C204.534 170.993 187.106 180.576 174.847 187.332L161.182 194.772C158.149 196.431 156.68 197.242 155.894 197.614L155.687 197.733C155.14 197.978 155.005 197.941 154.774 197.882C154.55 197.826 154.349 197.709 154.194 197.547C154.039 197.385 153.938 197.185 153.904 196.97C153.869 196.755 153.903 196.535 153.999 196.338C154.096 196.14 154.252 195.973 154.449 195.858C173.362 184.899 201.295 168.382 213.808 160.258C207.147 163.873 197.198 169.818 189.194 174.617C166.756 188.009 159.935 191.863 157.958 191.401C157.77 191.36 157.593 191.283 157.438 191.175C157.282 191.068 157.151 190.932 157.053 190.776C156.561 189.966 156.204 189.393 163.659 184.356C161.627 185.196 160.253 185.516 159.451 185.338C159.224 185.29 159.01 185.199 158.822 185.071C158.634 184.943 158.475 184.781 158.355 184.594C158.208 184.345 158.167 184.053 158.241 183.776C158.314 183.5 158.497 183.261 158.752 183.106C173.402 174.468 195.665 160.927 203.32 155.325C196.618 158.398 181.993 167.229 173.386 172.392C159.324 180.792 158.8 181 157.903 180.792C157.738 180.756 157.583 180.69 157.447 180.596C157.31 180.503 157.195 180.385 157.109 180.249C156.474 179.23 155.918 178.322 169.686 169.453C167.987 170.465 166.248 171.514 164.469 172.586C164.322 172.697 164.15 172.776 163.966 172.816C163.781 172.856 163.59 172.856 163.405 172.816C163.249 172.781 163.101 172.716 162.973 172.625C162.845 172.534 162.738 172.42 162.659 172.288C161.809 170.912 163.032 169.729 172.695 162.787C172.518 162.752 172.35 162.682 172.204 162.582C172.058 162.482 171.935 162.354 171.845 162.207C171.698 161.95 171.663 161.65 171.747 161.37C171.832 161.089 172.029 160.851 172.298 160.704C172.521 160.589 172.775 160.54 173.028 160.563C174.284 159.879 175.501 159.134 176.673 158.331C180.548 155.779 181.643 155.169 182.588 155.355C182.773 155.392 182.947 155.465 183.1 155.569C183.253 155.673 183.381 155.805 183.477 155.957C184.16 157.073 183.628 157.743 177.125 162.46C178.936 161.411 180.802 160.325 182.683 159.253C201.041 148.733 202.462 149.045 203.327 149.239C203.518 149.277 203.698 149.353 203.855 149.46C204.012 149.568 204.144 149.706 204.241 149.864C204.39 150.112 204.432 150.405 204.358 150.682C204.284 150.959 204.1 151.198 203.844 151.352C194.887 156.56 185.582 162.199 177.777 167.073C195.896 156.233 204.606 151.449 207.059 152.029C207.272 152.073 207.473 152.158 207.649 152.279C207.825 152.399 207.973 152.552 208.084 152.728C208.838 153.956 209.386 154.849 184.319 170.309L180.714 172.541C185.764 169.565 190.878 166.44 195.006 163.911C211.085 154.134 213.689 152.699 214.904 152.966C215.071 153.007 215.227 153.079 215.363 153.177C215.499 153.276 215.613 153.399 215.698 153.539C215.85 153.787 215.894 154.079 215.822 154.356C215.749 154.634 215.566 154.874 215.309 155.027C199.762 164.312 177.054 178.173 165.827 185.621C171.861 182.287 180.413 177.176 187.86 172.727C211.466 158.591 219.168 154.313 221.343 154.804C221.538 154.848 221.721 154.927 221.882 155.039C222.043 155.15 222.178 155.29 222.28 155.451C222.86 156.396 223.281 157.066 209.473 165.704C228.823 155.183 229.196 155.288 229.807 155.422C229.963 155.459 230.109 155.525 230.237 155.616C230.365 155.706 230.473 155.82 230.554 155.95C231.348 157.237 231.912 158.182 195.403 180.041C192.751 181.633 190.092 183.217 187.463 184.765C201.914 176.759 219.136 166.909 232.181 159.275C232.318 159.197 232.47 159.145 232.628 159.122C232.786 159.099 232.947 159.106 233.102 159.142C233.415 159.216 233.683 159.403 233.849 159.662C234.413 160.585 233.579 161.15 232.698 161.716C232.158 162.065 231.364 162.571 230.316 163.204C228.394 164.402 225.552 166.18 221.883 168.412C215.706 172.184 207.075 177.414 196.229 183.961C185.78 190.263 175.252 196.609 168.034 200.932C177.57 196.208 196.118 186 231.848 164.61C236.993 161.537 236.993 161.537 237.517 161.634C237.674 161.67 237.822 161.736 237.952 161.826C238.081 161.917 238.19 162.031 238.271 162.162C238.565 162.638 238.732 162.906 237.779 163.702C236.509 164.744 233.349 166.678 226.139 171.068C236.35 165.823 237.303 166.038 237.922 166.187C238.102 166.225 238.272 166.298 238.421 166.4C238.57 166.503 238.695 166.633 238.788 166.782C239.216 167.482 239.32 168.323 237.732 169.989C238.358 169.806 239.021 169.76 239.669 169.855C239.928 169.906 240.173 170.007 240.387 170.152C240.602 170.296 240.782 170.482 240.915 170.696C241.709 171.976 242.106 172.63 218.517 186.573C243.496 173.017 243.742 173.077 244.338 173.225C244.49 173.262 244.634 173.327 244.759 173.416C244.885 173.506 244.99 173.618 245.068 173.746C245.862 174.981 244.433 176.224 241.019 178.56C238.819 180.048 235.715 182.012 231.554 184.512C245.425 176.395 248.903 174.714 250.142 174.996C250.317 175.036 250.482 175.109 250.626 175.21C250.771 175.311 250.892 175.438 250.983 175.584C251.063 175.711 251.115 175.851 251.135 175.997C251.156 176.142 251.144 176.291 251.102 176.432C251.062 176.576 250.992 176.71 250.895 176.828C250.798 176.946 250.677 177.044 250.539 177.117C242.44 181.417 234.206 185.866 226.25 190.256L218.009 195.136C201.803 204.749 189.98 211.661 181.683 216.184C179.055 217.873 176.808 219.376 175.006 220.648C182.39 216.556 194.967 209.6 207.56 202.718C247.26 180.948 247.863 181.104 248.617 181.29C248.773 181.328 248.919 181.394 249.047 181.485C249.175 181.575 249.283 181.689 249.364 181.819C249.478 182.009 249.551 182.219 249.577 182.437C249.603 182.654 249.582 182.874 249.514 183.083C249.28 183.804 248.831 184.447 248.22 184.936C250.944 183.664 252.651 183.143 253.492 183.329C253.697 183.373 253.89 183.456 254.059 183.572C254.229 183.689 254.371 183.836 254.477 184.006C255.112 185.033 254.223 185.591 252.262 186.811C251.079 187.555 249.332 188.589 246.91 190.003L246.442 190.278C250.142 188.619 252.738 187.838 254.04 188.135C254.306 188.187 254.558 188.289 254.779 188.437C255.001 188.584 255.187 188.773 255.327 188.991C256.422 190.769 255.327 191.9 216.587 213.372C200.318 222.456 178.825 234.36 172.965 238.824C176.197 237.76 184.248 234.114 204.256 222.768C220.565 213.521 238.526 202.725 247.132 197.539C253.111 193.946 253.103 193.953 253.635 194.072C253.952 194.148 254.223 194.338 254.39 194.601C254.874 195.389 255.366 196.185 248.832 200.746C249.754 200.355 250.768 200.191 251.777 200.27C252 200.319 252.209 200.41 252.392 200.538C252.575 200.666 252.728 200.828 252.841 201.014C253.54 202.152 253.54 202.152 240.693 210.039C234.341 213.922 225.528 219.287 214.412 225.983C203.693 232.44 192.886 238.921 185.486 243.347C200.477 235.818 228.569 219.123 241.066 211.698C252.182 205.113 252.182 205.113 252.786 205.255C252.941 205.292 253.087 205.358 253.215 205.449C253.343 205.539 253.451 205.653 253.532 205.783C254.382 207.167 253.032 209.131 247.807 212.769C247.96 212.749 248.115 212.749 248.268 212.769C248.462 212.813 248.646 212.892 248.806 213.004C248.967 213.115 249.103 213.255 249.205 213.416C250.039 214.77 250.983 216.303 215.746 236.979C225.877 231.131 236.39 224.911 244.878 219.755C245.013 219.672 245.166 219.616 245.325 219.59C245.485 219.565 245.649 219.57 245.806 219.605C245.964 219.641 246.112 219.706 246.242 219.797C246.372 219.888 246.48 220.003 246.561 220.135C247.14 221.087 246.338 221.623 244.973 222.515C244.179 223.044 242.98 223.817 241.408 224.8C239.836 225.782 237.882 227.032 235.524 228.46C238.811 226.898 240.844 226.265 241.876 226.503C242.1 226.551 242.311 226.641 242.496 226.769C242.68 226.898 242.834 227.06 242.948 227.247C243.615 228.326 243.464 228.735 235.429 233.601C237.12 232.924 238.319 232.679 239.089 232.857C239.329 232.905 239.554 233 239.753 233.134C239.951 233.269 240.117 233.44 240.241 233.638C241.177 235.126 240.471 235.826 218.953 248.035C212.792 251.532 205.035 255.929 198.754 259.723L241.003 236.875C241.138 236.8 241.288 236.751 241.443 236.732C241.599 236.713 241.757 236.723 241.908 236.763C242.211 236.839 242.471 237.023 242.63 237.276C243.218 238.236 242.384 238.809 241.003 239.761C240.169 240.334 238.946 241.145 237.263 242.231C234.127 244.27 229.768 247.03 225.155 249.962C219.779 253.369 213.014 257.662 207.472 261.27C210.021 259.693 212.673 258.004 215.031 256.501C227.314 248.675 232.499 245.542 234.524 245.959C234.736 246.003 234.936 246.086 235.112 246.205C235.289 246.324 235.437 246.476 235.548 246.651C236.239 247.782 236.271 247.834 222.185 257.394C232.404 251.026 235.747 249.21 237.271 249.53C237.467 249.572 237.652 249.651 237.815 249.762C237.977 249.874 238.114 250.015 238.216 250.177C238.772 251.085 238.772 251.085 231.665 256.524C229.522 258.161 226.544 260.437 223.86 262.543C226.036 261.285 228.434 259.857 230.713 258.473C230.848 258.39 231.001 258.334 231.16 258.308C231.32 258.282 231.484 258.287 231.641 258.323C231.799 258.358 231.947 258.424 232.077 258.515C232.207 258.606 232.315 258.721 232.396 258.852C232.84 259.596 232.674 259.745 231.046 261.382C229.72 262.714 228.585 263.882 227.624 264.879C234.833 260.854 235.095 260.921 235.604 261.04C235.758 261.077 235.903 261.144 236.03 261.234C236.156 261.325 236.263 261.438 236.342 261.568C236.421 261.695 236.473 261.835 236.494 261.981C236.515 262.126 236.505 262.274 236.464 262.416C236.424 262.558 236.353 262.691 236.257 262.807C236.161 262.924 236.042 263.021 235.905 263.093C235.79 263.158 235.664 263.204 235.532 263.227C234.476 263.674 228.608 266.91 223.44 269.841C223.265 269.916 223.075 269.951 222.884 269.945ZM234.341 262.632C234.467 262.832 234.656 262.99 234.881 263.086C234.658 262.987 234.47 262.829 234.341 262.632ZM205.027 251.271C198.166 255.281 191.417 259.299 187.019 262.163C191.807 259.492 198.762 255.192 205.027 251.271ZM234.556 231.458C226.766 235.506 214.166 243.109 204.59 248.905C208.115 246.844 212.133 244.516 216.698 241.882C222.987 238.259 229.76 234.36 234.556 231.458ZM234.047 236.666C229.815 238.779 223.392 242.618 217.127 246.45L217.786 246.078C223.638 242.745 229.99 239.136 234.047 236.651V236.666ZM195.006 219.956C189.766 223.029 185.002 225.923 181.032 228.408C185.145 225.945 190.02 222.992 195.006 219.956ZM251.531 190.695C249.229 191.439 244.346 193.522 234.016 199.332C223.686 205.143 211.204 212.784 200.088 219.554C195.237 222.53 191.155 224.986 187.71 227.054C194.395 223.2 203.375 218.163 215.372 211.512C229.974 203.395 246.299 194.348 251.531 190.695ZM244.076 212.524L242.392 213.528C236.834 216.836 231.57 219.949 226.6 222.865C233.23 219.13 239.494 215.477 244.076 212.524ZM191.417 207.576C184.137 211.698 177.062 215.76 172.361 218.535C174.743 217.397 177.61 215.872 180.849 214.071C184.033 212.04 187.598 209.845 191.417 207.576ZM210.061 187.919C207.012 189.824 204.01 191.714 201.2 193.477C195.642 196.989 190.703 200.054 186.423 202.688L190.798 200.158C206.877 190.873 230.093 177.451 236.922 172.586C234.396 173.643 231.948 174.856 229.593 176.216C226.878 177.995 223.424 180.13 219.049 182.719C216.198 184.393 213.173 186.134 210.061 187.905V187.919Z" fill="white"/>
</g>
<path d="M206.019 150.697H205.487C176.697 151.196 154.997 171.834 154.997 197.227C154.984 204.81 156.958 212.28 160.745 218.982C162.333 222.516 166.176 231.168 169.98 242.358C173.505 252.685 175.347 263.078 175.347 264.678C175.347 264.827 175.347 264.983 175.347 265.154C175.331 265.621 175.415 266.086 175.595 266.522C175.774 266.958 176.045 267.356 176.392 267.691C176.738 268.027 177.153 268.294 177.612 268.477C178.071 268.66 178.564 268.754 179.063 268.755H230.625C231.124 268.754 231.617 268.66 232.076 268.477C232.535 268.294 232.95 268.027 233.296 267.691C233.643 267.356 233.914 266.958 234.093 266.522C234.273 266.086 234.357 265.621 234.341 265.154C234.341 264.983 234.341 264.827 234.341 264.678C234.341 263.108 236.183 252.715 239.701 242.358C243.512 231.198 247.315 222.516 248.935 218.982C252.895 211.961 254.872 204.109 254.679 196.171C254.486 188.232 252.128 180.472 247.831 173.629C243.534 166.785 237.44 161.085 230.128 157.072C222.817 153.058 214.531 150.863 206.059 150.697H206.019Z" stroke="#263238" stroke-width="2" stroke-linecap="round" stroke-linejoin="round"/>
<path d="M223.416 158.167C221.978 157.562 220.504 157.035 219.001 156.59" stroke="#263238" stroke-width="3" stroke-linecap="round" stroke-linejoin="round"/>
<path d="M239.963 169.982C239.963 169.982 235.913 163.955 227.013 159.856" stroke="#263238" stroke-width="3" stroke-linecap="round" stroke-linejoin="round"/>
<path d="M201.549 247.655V223.758C201.549 223.758 203.51 212.122 197.055 212.122C190.6 212.122 191.092 218.178 198.54 224.688C205.987 231.198 217.421 225.157 218.914 220.038C220.406 214.919 216.429 212.598 213.943 216.779C211.458 220.961 213.943 268.45 213.943 268.45" stroke="#263238" stroke-width="3" stroke-linecap="round" stroke-linejoin="round"/>
<path d="M187.741 138.607L190.488 146.709" stroke="#263238" stroke-width="3" stroke-linecap="round" stroke-linejoin="round"/>
<path d="M255.057 156.277L246.013 162.906" stroke="#263238" stroke-width="3" stroke-linecap="round" stroke-linejoin="round"/>
<path d="M221.526 132.692L218.12 146.709" stroke="#263238" stroke-width="3" stroke-linecap="round" stroke-linejoin="round"/>
<path d="M232.062 272.237H177.602C176.905 272.237 176.339 272.767 176.339 273.42V274.008C176.339 274.661 176.905 275.191 177.602 275.191H232.062C232.76 275.191 233.325 274.661 233.325 274.008V273.42C233.325 272.767 232.76 272.237 232.062 272.237Z" fill="#263238" stroke="#263238" stroke-linecap="round" stroke-linejoin="round"/>
<path d="M232.062 278.888H177.602C176.905 278.888 176.339 279.418 176.339 280.071V280.659C176.339 281.312 176.905 281.842 177.602 281.842H232.062C232.76 281.842 233.325 281.312 233.325 280.659V280.071C233.325 279.418 232.76 278.888 232.062 278.888Z" fill="#263238" stroke="#263238" stroke-linecap="round" stroke-linejoin="round"/>
<path d="M232.062 285.54H177.602C176.905 285.54 176.339 286.069 176.339 286.723V287.31C176.339 287.964 176.905 288.493 177.602 288.493H232.062C232.76 288.493 233.325 287.964 233.325 287.31V286.723C233.325 286.069 232.76 285.54 232.062 285.54Z" fill="#263238" stroke="#263238" stroke-linecap="round" stroke-linejoin="round"/>
<path d="M206.503 292.035H178.539L186.59 302.451C187.28 303.345 188.187 304.073 189.236 304.575C190.285 305.077 191.446 305.338 192.624 305.338H217.238C218.419 305.337 219.582 305.073 220.632 304.569C221.683 304.064 222.591 303.333 223.281 302.436L231.268 292.072L206.503 292.035Z" fill="#263238" stroke="#263238" stroke-linecap="round" stroke-linejoin="round"/>
<path d="M266.538 180.792C266.538 180.792 261.456 186 257.296 188.589C253.135 191.178 250.237 194.623 254.056 196.386C256.351 197.443 259.614 195.955 259.614 195.955C259.614 195.955 254.525 197.249 253.604 201.587C252.683 205.924 262.814 204.169 262.814 204.169C262.814 204.169 255.422 208.93 257.732 210.664C260.043 212.397 264.664 211.095 266.975 211.095C269.285 211.095 280.846 204.169 283.649 204.169C286.451 204.169 291.97 209.801 291.97 214.131C291.97 218.461 299.338 218.029 300.283 204.6C301.228 191.171 297.512 179.914 291.501 176.447C285.491 172.98 266.538 180.792 266.538 180.792Z" fill="white" stroke="#263238" stroke-miterlimit="10" stroke-linecap="round"/>
<path d="M263.767 195.501L282.211 189.043C282.211 189.043 290.31 187.399 296.122 196.371" stroke="#263238" stroke-miterlimit="10" stroke-linecap="round"/>
<path d="M266.999 200.701L283.673 198.105C283.673 198.105 291.073 197.673 295.694 205.902" stroke="#263238" stroke-miterlimit="10" stroke-linecap="round"/>
<path d="M287.341 211.095L274.859 213.699L282.251 241.413C282.251 241.413 288.73 253.54 290.572 258.741C292.414 263.941 311.375 281.232 311.375 281.232L333.559 261.308C333.559 261.308 323.396 250.051 322.936 247.447C322.475 244.843 320.617 214.532 320.617 210.202C320.617 205.872 311.375 195.471 311.375 195.471C311.375 195.471 307.58 190.375 305.73 181.715C303.88 173.054 295.408 169.491 290.771 169.922C286.134 170.354 273.47 171.656 268.388 175.13C263.306 178.605 258.677 182.927 263.306 184.229C270.984 186.387 283.545 176.789 289.604 183.426C292.383 186.454 295.662 199.794 296.122 201.557C296.122 201.557 293.812 209.786 287.341 211.08" fill="white"/>
<path d="M287.341 211.095L274.859 213.699L282.251 241.413C282.251 241.413 288.73 253.54 290.572 258.741C292.414 263.941 311.375 281.232 311.375 281.232L333.559 261.308C333.559 261.308 323.396 250.051 322.936 247.447C322.475 244.843 320.617 214.532 320.617 210.202C320.617 205.872 311.375 195.471 311.375 195.471C311.375 195.471 307.58 190.375 305.73 181.715C303.88 173.054 295.408 169.491 290.771 169.922C286.134 170.354 273.47 171.656 268.388 175.13C263.306 178.605 258.677 182.927 263.306 184.229C270.984 186.387 283.545 176.789 289.604 183.426C292.383 186.454 295.662 199.794 296.122 201.557C296.122 201.557 293.812 209.786 287.341 211.08" stroke="#263238" stroke-miterlimit="10" stroke-linecap="round"/>
<path d="M240.796 170.837C240.938 170.698 241.128 170.611 241.332 170.592C241.536 170.573 241.74 170.623 241.908 170.733L243.798 171.961C243.984 172.084 244.111 172.271 244.152 172.481C244.192 172.692 244.142 172.908 244.012 173.084C243.882 173.258 243.684 173.377 243.461 173.415C243.238 173.453 243.008 173.406 242.821 173.285L240.931 172.05C240.745 171.928 240.618 171.743 240.578 171.533C240.538 171.324 240.588 171.109 240.717 170.934C240.739 170.899 240.766 170.866 240.796 170.837Z" fill="#263238" stroke="#263238" stroke-miterlimit="10" stroke-linecap="round"/>
<path d="M242.964 172.266C243.285 171.944 243.718 171.743 244.185 171.697C244.652 171.652 245.121 171.767 245.505 172.02L251.428 174.877L309.581 210.723C310.076 211.046 310.5 211.457 310.826 211.933C311.152 212.41 311.375 212.941 311.482 213.498C311.589 214.055 311.577 214.626 311.449 215.179C311.32 215.732 311.077 216.255 310.732 216.72C310.387 217.184 309.948 217.581 309.44 217.886C308.932 218.192 308.365 218.401 307.771 218.501C307.176 218.601 306.567 218.591 305.977 218.47C305.387 218.35 304.828 218.121 304.332 217.799L247.895 178.783L243.282 175.063C243.07 174.926 242.889 174.75 242.75 174.547C242.61 174.344 242.515 174.117 242.469 173.879C242.424 173.641 242.428 173.398 242.483 173.162C242.538 172.926 242.642 172.702 242.789 172.504C242.839 172.419 242.898 172.34 242.964 172.266Z" fill="#0088F0" stroke="#263238" stroke-miterlimit="10" stroke-linecap="round"/>
<path d="M309.589 210.723L292.804 200.382C291.508 200.733 290.366 201.462 289.543 202.463C288.719 203.463 288.256 204.683 288.222 205.947C288.223 206.196 288.245 206.445 288.286 206.691L304.34 217.791C305.342 218.443 306.578 218.696 307.779 218.494C308.979 218.291 310.044 217.651 310.74 216.712C311.436 215.774 311.706 214.615 311.49 213.491C311.274 212.366 310.59 211.368 309.589 210.716V210.723Z" fill="#263238" stroke="#263238" stroke-miterlimit="10" stroke-linecap="round"/>
<path d="M290.604 258.741C285.522 251.814 279.051 234.055 276.312 230.588C273.573 227.121 266.101 219.428 263.33 211.661C260.559 203.893 258.741 197.673 258.741 191.171C258.741 184.668 264.704 183.552 269.325 190.486C273.946 197.42 279.488 208.067 279.488 208.067C279.488 208.067 283.188 212.397 290.604 211.095" fill="white"/>
<path d="M290.604 258.741C285.522 251.814 279.051 234.055 276.312 230.588C273.573 227.121 266.101 219.428 263.33 211.661C260.559 203.893 258.741 197.673 258.741 191.171C258.741 184.668 264.704 183.552 269.325 190.486C273.946 197.42 279.488 208.067 279.488 208.067C279.488 208.067 283.188 212.397 290.604 211.095" stroke="#263238" stroke-miterlimit="10" stroke-linecap="round"/>
<path d="M264.474 188.463L266.062 191.357C266.062 191.357 265.712 191.357 263.243 192.674C261.769 193.461 260.532 194.584 259.646 195.94C259.646 195.94 257.264 189.705 259.368 187.756C259.879 187.25 260.555 186.917 261.29 186.811C261.937 186.747 262.59 186.872 263.159 187.167C263.729 187.463 264.187 187.915 264.474 188.463Z" fill="white" stroke="#263238" stroke-miterlimit="10" stroke-linecap="round"/>
<path d="M328.716 252.484C328.716 252.484 316.481 255.877 310.129 261.829C305.922 265.845 301.984 270.102 298.338 274.573L309.676 286.894C309.676 286.894 319.204 276.694 325.556 272.014C329.882 268.901 334.426 266.062 339.157 263.517L328.716 252.484Z" fill="white" stroke="#263238" stroke-miterlimit="10" stroke-linecap="round"/>
<path d="M340.078 342.121L304.261 288.166C304.261 288.166 313.328 275.421 321.038 269.053C328.748 262.684 338.72 260.98 338.72 260.98L383.502 301.253" fill="#263238"/>
<path d="M340.078 342.121L304.261 288.166C304.261 288.166 313.328 275.421 321.038 269.053C328.748 262.684 338.72 260.98 338.72 260.98L383.502 301.253" stroke="#263238" stroke-miterlimit="10" stroke-linecap="round"/>
<path d="M271.072 204.221L271.866 204.146" stroke="#263238" stroke-miterlimit="10" stroke-linecap="round"/>
<path d="M264.156 207.822C264.156 207.822 264.577 205.448 269.666 204.451" stroke="#263238" stroke-miterlimit="10" stroke-linecap="round"/>
<path d="M269.682 206.148C269.682 206.148 269.325 207.152 265.76 208.491" stroke="#263238" stroke-miterlimit="10" stroke-linecap="round"/>
<path d="M269.539 202.971C267.755 203.233 266.06 203.877 264.585 204.853" stroke="#263238" stroke-miterlimit="10" stroke-linecap="round"/>
<path d="M157.815 128.972C157.815 128.972 165.311 129.545 170.059 131.026C174.807 132.506 179.476 132.514 178.61 128.63C178.094 126.287 174.839 124.791 174.839 124.791C174.839 124.791 179.055 127.767 183.271 125.781C187.487 123.794 179.785 117.351 179.785 117.351C179.785 117.351 188.345 119.896 188.384 117.121C188.424 114.345 184.494 111.726 183.073 110.015C181.651 108.304 168.725 104.011 167.018 101.965C165.311 99.9192 166.653 92.3527 170.305 89.6892C173.957 87.0257 169.05 81.84 157.212 89.3842C145.373 96.9283 138.156 106.593 138.878 113.192C139.601 119.791 157.815 128.972 157.815 128.972Z" fill="white" stroke="#263238" stroke-miterlimit="10" stroke-linecap="round"/>
<path d="M171.925 122.016L155.155 112.344C155.155 112.344 148.803 107.367 152.773 97.5607" stroke="#263238" stroke-miterlimit="10" stroke-linecap="round"/>
<path d="M174.315 116.399L161.912 105.685C161.912 105.685 157.006 100.477 161.118 92.0105" stroke="#263238" stroke-miterlimit="10" stroke-linecap="round"/>
<path d="M170.591 94.9716L180.436 102.612L199.294 80.1214C199.294 80.1214 211.442 75.0101 214.642 70.4494C217.842 65.8887 220.565 41.1879 220.565 41.1879L190.084 37.2C190.084 37.2 186.979 51.6634 185.089 53.6201C183.2 55.5768 153.075 68.2248 149.431 70.8883C145.786 73.5519 142.698 86.7653 142.698 86.7653C141.072 92.1375 138.947 97.3656 136.346 102.389C129.398 115.573 130.637 114.561 133.837 117.716C137.036 120.87 144.826 127.284 150.868 128.92C156.91 130.557 164.421 136.405 162.738 129.255C161.007 121.927 144.047 118.839 145.913 110.298C146.763 106.385 156.013 95.7528 157.188 94.3467C157.188 94.3467 165.533 91.0061 170.607 94.9939" fill="white"/>
<path d="M170.591 94.9716L180.436 102.612L199.294 80.1214C199.294 80.1214 211.442 75.0101 214.642 70.4494C217.842 65.8887 220.565 41.1879 220.565 41.1879L190.084 37.2C190.084 37.2 186.979 51.6634 185.089 53.6201C183.2 55.5768 153.075 68.2248 149.431 70.8883C145.786 73.5519 142.698 86.7653 142.698 86.7653C141.072 92.1375 138.947 97.3656 136.346 102.389C129.398 115.573 130.637 114.561 133.837 117.716C137.036 120.87 144.826 127.284 150.868 128.92C156.91 130.557 164.421 136.405 162.738 129.255C161.007 121.927 144.047 118.839 145.913 110.298C146.763 106.385 156.013 95.7528 157.188 94.3467C157.188 94.3467 165.533 91.0061 170.607 94.9939" stroke="#263238" stroke-miterlimit="10" stroke-linecap="round"/>
<path d="M165.247 154.12C165.042 154.106 164.848 154.023 164.702 153.886C164.556 153.75 164.468 153.568 164.453 153.376L164.334 151.218C164.318 151.108 164.327 150.996 164.359 150.89C164.392 150.783 164.447 150.684 164.523 150.599C164.598 150.513 164.691 150.443 164.797 150.393C164.903 150.343 165.018 150.314 165.136 150.308C165.254 150.302 165.372 150.319 165.483 150.357C165.594 150.396 165.695 150.456 165.78 150.533C165.865 150.61 165.932 150.703 165.977 150.805C166.022 150.908 166.044 151.018 166.041 151.129L166.168 153.286C166.181 153.497 166.105 153.704 165.957 153.863C165.808 154.022 165.599 154.119 165.374 154.134L165.247 154.12Z" fill="#263238" stroke="#263238" stroke-miterlimit="10" stroke-linecap="round"/>
<path d="M165.152 151.627C164.684 151.588 164.247 151.392 163.922 151.075C163.596 150.757 163.404 150.341 163.381 149.901L162.159 143.763L156.656 78.745C156.591 77.6035 157.012 76.4844 157.827 75.634C158.643 74.7836 159.785 74.2715 161.003 74.2103C162.221 74.1491 163.416 74.5439 164.323 75.3078C165.231 76.0717 165.777 77.1422 165.843 78.2837L167.621 143.986L167.288 149.708C167.302 149.948 167.265 150.189 167.179 150.416C167.094 150.643 166.961 150.852 166.79 151.031C166.618 151.21 166.41 151.355 166.178 151.459C165.946 151.563 165.694 151.622 165.438 151.635C165.342 151.64 165.247 151.637 165.152 151.627Z" fill="#0088F0" stroke="#263238" stroke-miterlimit="10" stroke-linecap="round"/>
<path d="M156.616 78.745L158.204 97.5087C159.293 98.2553 160.607 98.6577 161.956 98.6577C163.305 98.6577 164.619 98.2553 165.708 97.5087C165.919 97.3537 166.118 97.1847 166.303 97.0028L165.803 78.3135C165.738 77.172 165.191 76.1015 164.284 75.3376C163.376 74.5737 162.182 74.1789 160.964 74.2401C159.745 74.3012 158.603 74.8134 157.788 75.6638C156.973 76.5142 156.551 77.6332 156.616 78.7747V78.745Z" fill="#263238" stroke="#263238" stroke-miterlimit="10" stroke-linecap="round"/>
<path d="M214.602 70.4196C211.998 78.4623 200.501 89.5181 198.5 93.4167C194.013 102.25 188.822 110.753 182.969 118.854C180.992 121.629 178.856 122.023 177.554 123.02C175.649 124.508 174.672 126.034 171.417 128.4C165.946 132.387 161.341 128.675 164.342 121.004C167.343 113.334 172.854 102.672 172.854 102.672C172.854 102.672 174.235 97.278 168.606 92.6057" fill="white"/>
<path d="M214.602 70.4196C211.998 78.4623 200.501 89.5181 198.5 93.4167C194.013 102.25 188.822 110.753 182.969 118.854C180.992 121.629 178.856 122.023 177.554 123.02C175.649 124.508 174.672 126.034 171.417 128.4C165.946 132.387 161.341 128.675 164.342 121.004C167.343 113.334 172.854 102.672 172.854 102.672C172.854 102.672 174.235 97.278 168.606 92.6057" stroke="#263238" stroke-miterlimit="10" stroke-linecap="round"/>
<path d="M165.549 125.781L167.042 122.864C167.042 122.864 167.256 123.125 169.884 124.136C171.45 124.743 173.155 124.968 174.839 124.791C174.839 124.791 171.051 130.386 168.09 130.036C167.351 129.971 166.658 129.675 166.121 129.196C165.658 128.753 165.354 128.186 165.251 127.574C165.149 126.962 165.253 126.335 165.549 125.781Z" fill="white" stroke="#263238" stroke-miterlimit="10" stroke-linecap="round"/>
<path d="M187.511 13.8905L181.199 52.3032C181.199 52.3032 188.813 58.5751 198.929 60.264C209.044 61.9529 227.513 64.5122 227.513 64.5122L243.679 13.8756" fill="#263238"/>
<path d="M187.511 13.8905L181.199 52.3032C181.199 52.3032 188.813 58.5751 198.929 60.264C209.044 61.9529 227.513 64.5122 227.513 64.5122L243.679 13.8756" stroke="#263238" stroke-miterlimit="10" stroke-linecap="round"/>
<path d="M224.257 55.9265C224.257 56.5048 224.074 57.0701 223.731 57.5509C223.389 58.0318 222.901 58.4065 222.331 58.6278C221.761 58.8491 221.133 58.907 220.528 58.7942C219.923 58.6814 219.367 58.4029 218.93 57.994C218.494 57.5851 218.197 57.0641 218.076 56.4969C217.956 55.9297 218.018 55.3418 218.254 54.8075C218.49 54.2733 218.89 53.8166 219.403 53.4953C219.916 53.174 220.52 53.0026 221.137 53.0026C221.965 53.0026 222.758 53.3106 223.343 53.859C223.929 54.4073 224.257 55.151 224.257 55.9265Z" fill="white" stroke="#263238" stroke-width="2" stroke-linecap="round" stroke-linejoin="round"/>
<path d="M172.465 116.295L171.933 115.789" stroke="#263238" stroke-miterlimit="10" stroke-linecap="round"/>
<path d="M179.738 119.204C179.738 119.204 177.483 120.349 173.521 117.202" stroke="#263238" stroke-miterlimit="10" stroke-linecap="round"/>
<path d="M174.934 116.138C174.934 116.138 175.998 115.789 179.317 117.626" stroke="#263238" stroke-miterlimit="10" stroke-linecap="round"/>
<path d="M172.354 118.207C173.669 119.36 175.25 120.216 176.975 120.707" stroke="#263238" stroke-miterlimit="10" stroke-linecap="round"/>
<path d="M174.632 243.415C174.632 243.415 175.355 250.43 177.014 254.857C178.674 259.284 178.769 263.659 174.585 262.907C172.076 262.453 170.432 259.433 170.432 259.433C170.432 259.433 173.664 263.339 171.615 267.312C169.567 271.285 162.563 264.172 162.563 264.172C162.563 264.172 165.406 272.148 162.452 272.23C159.499 272.311 156.632 268.666 154.79 267.364C152.948 266.062 148.168 253.972 145.953 252.439C143.738 250.907 135.694 252.238 132.915 255.698C130.136 259.158 124.499 254.641 132.391 243.4C140.284 232.158 150.471 225.246 157.49 225.871C164.509 226.496 174.632 243.415 174.632 243.415Z" fill="white" stroke="#263238" stroke-miterlimit="10" stroke-linecap="round"/>
<path d="M167.383 256.74L156.807 241.168C156.807 241.168 151.4 235.283 140.99 239.174" stroke="#263238" stroke-miterlimit="10" stroke-linecap="round"/>
<path d="M161.46 259.061L149.844 247.596C149.844 247.596 144.214 243.08 135.242 247.045" stroke="#263238" stroke-miterlimit="10" stroke-linecap="round"/>
<path d="M138.545 255.884L146.834 265.005L123.118 282.966C123.118 282.966 110.159 288.992 105.348 292.102C100.536 295.212 74.2628 298.344 74.2628 298.344L69.3558 269.923C69.3558 269.923 84.7118 266.672 86.7444 264.857C88.7771 263.041 109.77 239.88 112.526 236.421C115.281 232.961 129.374 229.874 129.374 229.874C129.374 229.874 135.679 227.947 142.721 222.077C149.764 216.206 158.824 218.148 162.238 221.102C165.652 224.056 174.942 232.262 176.776 237.872C178.61 243.481 179.515 249.575 174.99 248.005C167.47 245.394 163.604 230.655 154.504 232.522C150.344 233.378 139.133 242.194 137.656 243.325C137.656 243.325 134.21 251.197 138.545 255.884Z" fill="white"/>
<path d="M138.545 255.884L146.834 265.005L123.118 282.966C123.118 282.966 110.159 288.992 105.348 292.102C100.536 295.212 74.2628 298.344 74.2628 298.344L69.3558 269.923C69.3558 269.923 84.7118 266.672 86.7444 264.857C88.7771 263.041 109.77 239.88 112.526 236.421C115.281 232.961 129.374 229.874 129.374 229.874C129.374 229.874 135.679 227.947 142.721 222.077C149.764 216.206 158.824 218.148 162.238 221.102C165.652 224.056 174.942 232.262 176.776 237.872C178.61 243.481 179.515 249.575 174.99 248.005C167.47 245.394 163.604 230.655 154.504 232.522C150.344 233.378 139.133 242.194 137.656 243.325C137.656 243.325 134.21 251.197 138.545 255.884" stroke="#263238" stroke-miterlimit="10" stroke-linecap="round"/>
<path d="M201.573 249.984C201.558 249.791 201.47 249.61 201.324 249.473C201.178 249.337 200.984 249.254 200.779 249.24L198.476 249.158C198.364 249.154 198.251 249.171 198.146 249.208C198.04 249.245 197.943 249.301 197.861 249.372C197.778 249.444 197.711 249.531 197.664 249.627C197.617 249.723 197.591 249.826 197.587 249.932C197.583 250.037 197.601 250.143 197.64 250.242C197.679 250.341 197.739 250.431 197.816 250.509C197.892 250.586 197.984 250.649 198.087 250.693C198.189 250.737 198.3 250.761 198.413 250.765L200.715 250.847C200.937 250.853 201.153 250.78 201.318 250.641C201.484 250.503 201.586 250.31 201.605 250.103C201.599 250.062 201.588 250.023 201.573 249.984Z" fill="#263238" stroke="#263238" stroke-miterlimit="10" stroke-linecap="round"/>
<path d="M198.921 249.917C198.87 249.479 198.652 249.073 198.308 248.772C197.965 248.472 197.517 248.297 197.047 248.28L190.481 247.224L121.021 243.035C120.418 243.013 119.815 243.103 119.249 243.299C118.682 243.495 118.162 243.794 117.718 244.178C117.275 244.563 116.917 245.025 116.664 245.54C116.411 246.054 116.269 246.61 116.246 247.175C116.222 247.741 116.318 248.306 116.527 248.837C116.736 249.368 117.055 249.855 117.466 250.27C117.876 250.686 118.37 251.022 118.918 251.259C119.467 251.495 120.06 251.629 120.664 251.651L190.798 252.335L196.896 251.948C197.415 251.966 197.92 251.791 198.301 251.46C198.682 251.13 198.908 250.671 198.929 250.185C198.934 250.096 198.931 250.006 198.921 249.917Z" fill="#0088F0" stroke="#263238" stroke-miterlimit="10" stroke-linecap="round"/>
<path d="M121.021 243.035L141.062 244.248C141.872 245.259 142.316 246.486 142.332 247.75C142.348 249.014 141.934 250.25 141.149 251.279C140.983 251.475 140.805 251.664 140.617 251.844L120.688 251.651C120.084 251.629 119.491 251.495 118.942 251.259C118.393 251.022 117.9 250.686 117.49 250.27C117.079 249.855 116.76 249.368 116.551 248.837C116.342 248.306 116.246 247.741 116.269 247.175C116.293 246.61 116.435 246.054 116.688 245.54C116.94 245.025 117.299 244.563 117.742 244.178C118.186 243.794 118.706 243.495 119.272 243.299C119.839 243.103 120.442 243.013 121.045 243.035H121.021Z" fill="#263238" stroke="#263238" stroke-miterlimit="10" stroke-linecap="round"/>
<path d="M105.348 292.102C113.86 289.438 130.438 278.911 134.877 277.705C139.315 276.5 150.177 274.581 157.403 269.923C164.628 265.266 170.051 261.337 174.227 256.144C178.404 250.951 174.37 246.703 166.224 249.627C158.077 252.551 146.763 257.9 146.763 257.9C146.763 257.9 141.03 259.269 135.957 254.061" fill="white"/>
<path d="M105.348 292.102C113.86 289.438 130.438 278.911 134.877 277.705C139.315 276.5 150.177 274.581 157.403 269.923C164.628 265.266 170.051 261.337 174.227 256.144C178.404 250.951 174.37 246.703 166.224 249.627C158.077 252.551 146.763 257.9 146.763 257.9C146.763 257.9 141.03 259.269 135.957 254.061" stroke="#263238" stroke-miterlimit="10" stroke-linecap="round"/>
<path d="M171.345 250.728L168.249 252.164C168.249 252.164 168.534 252.365 169.654 254.805C170.333 256.265 170.606 257.862 170.448 259.448C170.448 259.448 176.363 255.817 175.942 253.042C175.861 252.351 175.537 251.704 175.021 251.204C174.539 250.774 173.925 250.496 173.265 250.411C172.605 250.325 171.934 250.436 171.345 250.728Z" fill="white" stroke="#263238" stroke-miterlimit="10" stroke-linecap="round"/>
<path d="M85.1008 263.8C85.1008 263.8 92.6915 273.42 93.9381 281.753C94.716 287.331 95.1244 292.949 95.1608 298.575L71.984 303.783C71.984 303.783 70.9359 290.272 68.8715 282.951C67.4179 278.025 65.6141 273.195 63.4723 268.495L85.1008 263.8Z" fill="white" stroke="#263238" stroke-miterlimit="10" stroke-linecap="round"/>
<path d="M86.1569 280.585C84.0925 271.151 77.2244 264.165 77.2244 264.165L22.3828 272.349V330.381L87.2685 305.3C87.2685 305.3 88.2134 290.019 86.1569 280.585Z" fill="#263238" stroke="#263238" stroke-miterlimit="10" stroke-linecap="round"/>
<path d="M71.4599 305.784C71.4693 306.238 71.3336 306.684 71.0703 307.065C70.807 307.447 70.4281 307.745 69.9823 307.923C69.5364 308.101 69.044 308.15 68.5683 308.063C68.0926 307.977 67.6553 307.759 67.3127 307.438C66.9701 307.117 66.7377 306.707 66.6455 306.262C66.5533 305.816 66.6054 305.354 66.7952 304.937C66.9849 304.519 67.3037 304.164 67.7104 303.917C68.1172 303.67 68.5934 303.543 69.0779 303.552C69.7058 303.563 70.3046 303.802 70.7487 304.218C71.1928 304.635 71.4477 305.196 71.4599 305.784Z" fill="white"/>
<path d="M78.2725 303.076C78.2709 303.526 78.1271 303.965 77.8591 304.339C77.5912 304.712 77.2112 305.003 76.7671 305.174C76.323 305.345 75.8348 305.389 75.364 305.3C74.8932 305.212 74.461 304.994 74.122 304.676C73.783 304.357 73.5524 303.951 73.4593 303.51C73.3662 303.068 73.4148 302.611 73.5989 302.195C73.783 301.78 74.0944 301.425 74.4938 301.175C74.8932 300.925 75.3626 300.792 75.8428 300.792C76.1626 300.792 76.4792 300.851 76.7745 300.966C77.0697 301.081 77.3379 301.249 77.5637 301.461C77.7894 301.673 77.9682 301.925 78.0898 302.202C78.2114 302.479 78.2735 302.776 78.2725 303.076Z" fill="white"/>
<path d="M155.942 259.574L155.402 259.083" stroke="#263238" stroke-miterlimit="10" stroke-linecap="round"/>
<path d="M159.157 266.352C159.157 266.352 160.348 264.217 156.926 260.549" stroke="#263238" stroke-miterlimit="10" stroke-linecap="round"/>
<path d="M155.822 261.888C155.822 261.888 155.457 262.892 157.45 265.973" stroke="#263238" stroke-miterlimit="10" stroke-linecap="round"/>
<path d="M158.006 259.44C159.26 260.657 160.198 262.129 160.745 263.741" stroke="#263238" stroke-miterlimit="10" stroke-linecap="round"/>
</svg>
