<svg width="70" height="70" viewBox="0 0 70 70" fill="none" xmlns="http://www.w3.org/2000/svg">
<g clip-path="url(#clip0)">
<path d="M46.642 21.8388C46.4727 20.0418 44.9632 18.669 43.1582 18.6702H41.9918V12.838C41.9856 10.5768 40.6719 8.52345 38.6214 7.5703C39.2882 6.75152 39.6544 5.72893 39.6589 4.67299C39.6589 2.09621 37.57 0.0072937 34.9932 0.0072937C32.4164 0.0072937 30.3275 2.09621 30.3275 4.67299C30.332 5.72893 30.6982 6.75152 31.365 7.5703C30.4928 7.98092 29.7356 8.60082 29.1611 9.37476C28.5865 8.60082 27.8293 7.98092 26.9572 7.5703C27.624 6.75152 27.9902 5.72893 27.9947 4.67299C27.9947 2.09621 25.9058 0.0072937 23.329 0.0072937C20.7523 0.0072937 18.6633 2.09621 18.6633 4.67299C18.6678 5.72893 19.034 6.75152 19.7008 7.5703C18.8286 7.98092 18.0715 8.60082 17.497 9.37476C16.9223 8.60082 16.1652 7.98092 15.2931 7.5703C15.9599 6.75152 16.326 5.72893 16.3306 4.67299C16.3306 2.09621 14.2416 0.0072937 11.6649 0.0072937C9.0881 0.0072937 6.99877 2.09608 6.99877 4.67299C7.00328 5.72893 7.36947 6.75152 8.03626 7.5703C5.98575 8.52345 4.672 10.5768 4.66585 12.838V18.6702H3.49947C1.69445 18.669 0.185107 20.0418 0.0156091 21.8388C-0.153752 23.6359 1.07251 25.2667 2.84594 25.6026L18.6631 48.199V68.8268C18.6631 69.257 18.8998 69.6522 19.2791 69.8552C19.6585 70.0581 20.1186 70.0359 20.4765 69.7972L27.4752 65.1315C27.7997 64.9151 27.9944 64.551 27.9946 64.161V48.199L43.8117 25.6028C45.5851 25.2667 46.8114 23.6359 46.642 21.8388ZM34.9932 2.34007C36.2816 2.34007 37.3261 3.38453 37.3261 4.67299C37.3261 5.96144 36.2816 7.0059 34.9932 7.0059C33.7047 7.0059 32.6603 5.96144 32.6603 4.67299C32.6618 3.38508 33.7054 2.34157 34.9932 2.34007ZM30.3275 12.838C30.3295 10.9063 31.8951 9.34073 33.8268 9.33868H36.1597C38.0914 9.34073 39.657 10.9063 39.659 12.838V18.6702H34.9933V14.0045C34.9933 13.3603 34.4712 12.8381 33.8269 12.8381C33.1827 12.8381 32.6605 13.3603 32.6605 14.0045V18.6702H30.3276V12.838H30.3275ZM23.3289 2.34007C24.6173 2.34007 25.6618 3.38453 25.6618 4.67299C25.6618 5.96144 24.6173 7.0059 23.3289 7.0059C22.0404 7.0059 20.996 5.96144 20.996 4.67299C20.9975 3.38508 22.0411 2.34157 23.3289 2.34007ZM18.6631 12.838C18.6651 10.9063 20.2306 9.34073 22.1624 9.33868H24.4953C26.427 9.34073 27.9925 10.9063 27.9946 12.838V18.6702H23.3289V14.0045C23.3289 13.3603 22.8067 12.8381 22.1625 12.8381C21.5183 12.8381 20.9961 13.3603 20.9961 14.0045V18.6702H18.6632V12.838H18.6631ZM11.6645 2.34007C12.9529 2.34007 13.9974 3.38453 13.9974 4.67299C13.9974 5.96144 12.9529 7.00576 11.6645 7.00576C10.376 7.00576 9.33168 5.9613 9.33168 4.67299C9.33318 3.38508 10.3767 2.34157 11.6645 2.34007ZM6.99877 12.838C7.00082 10.9063 8.56635 9.34073 10.4981 9.33868H12.831C14.7627 9.34073 16.3282 10.9063 16.3303 12.838V18.6702H11.6645V14.0045C11.6645 13.3603 11.1423 12.8381 10.4981 12.8381C9.85384 12.8381 9.33168 13.3603 9.33168 14.0045V18.6702H6.99877V12.838ZM39.2852 28.0016H29.161C28.5167 28.0016 27.9946 28.5239 27.9946 29.168C27.9946 29.8122 28.5169 30.3344 29.161 30.3344H37.6521L36.0191 32.6673H26.8281C26.1838 32.6673 25.6617 33.1894 25.6617 33.8337C25.6617 34.4779 26.1838 35 26.8281 35H34.386L32.7529 37.333H24.4951C23.8509 37.333 23.3288 37.8553 23.3288 38.4994C23.3288 39.1434 23.8509 39.6657 24.4951 39.6657H31.1199L29.4868 41.9987H22.1622C21.518 41.9987 20.9958 42.5208 20.9958 43.165C20.9958 43.8093 21.518 44.3314 22.1622 44.3314H27.8537L25.8722 47.162C25.7349 47.3581 25.6614 47.5915 25.6614 47.8307V63.5366L20.9957 66.6474V47.831C20.9957 47.5918 20.9222 47.3583 20.7849 47.1623L5.73956 25.6688H40.9182L39.2852 28.0016ZM3.49947 23.3359C2.85524 23.3359 2.33308 22.8137 2.33308 22.1695C2.33308 21.5253 2.85524 21.0031 3.49947 21.0031H43.1582C43.8021 21.0038 44.324 21.5255 44.3246 22.1695C44.3239 22.8135 43.8021 23.3353 43.1582 23.3359H3.49947Z" fill="#922BE2"/>
<path d="M69.886 39.1351C69.0912 33.1968 64.2895 28.6007 58.3219 28.0665V6.32214L62.163 10.1632C62.457 10.4609 62.888 10.5783 63.2923 10.4709C63.6967 10.3634 64.0125 10.0475 64.12 9.6432C64.2274 9.23887 64.11 8.80788 63.8123 8.51385L57.9801 2.68164C57.9697 2.67125 57.9556 2.66824 57.9449 2.65826C57.8454 2.56162 57.7291 2.48384 57.6019 2.42862L57.5977 2.42766C57.5879 2.4237 57.5774 2.42384 57.5675 2.42001C57.4488 2.37558 57.3235 2.35125 57.1967 2.34784C57.1586 2.34647 57.1226 2.35125 57.0845 2.35358C56.9837 2.35959 56.8842 2.379 56.7885 2.41112C56.7511 2.42233 56.7142 2.43546 56.6781 2.45063C56.5492 2.50585 56.4314 2.58404 56.3305 2.6815L50.4983 8.51372C50.0428 8.96917 50.0428 9.70772 50.4983 10.1632C50.9537 10.6186 51.6923 10.6186 52.1477 10.1632L55.9888 6.32214V28.0644C54.8522 28.166 53.7343 28.4183 52.6643 28.8147C47.0517 30.906 43.6336 36.6029 44.4296 42.5392C45.2255 48.4756 50.0237 53.0709 55.9888 53.6099V62.9946C55.9871 64.2824 54.9436 65.3257 53.6558 65.3275H30.3275C29.6833 65.3275 29.1611 65.8497 29.1611 66.4939C29.1611 67.1381 29.6833 67.6603 30.3275 67.6603H53.6563C56.2321 67.6577 58.3195 65.5703 58.3219 62.9946V53.6159C59.4568 53.5104 60.5726 53.2546 61.6401 52.8554C67.2569 50.7705 70.6809 45.0735 69.886 39.1351ZM63.587 49.0922C59.9695 51.8989 54.9487 52.0321 51.1873 49.4213C47.426 46.8104 45.7951 42.0599 47.1596 37.6893C48.524 33.3187 52.5679 30.3398 57.1465 30.3326L57.1556 30.3345L57.1647 30.3326C61.5409 30.345 65.4523 33.0652 66.9871 37.1633C68.5813 41.4553 67.2046 46.2856 63.587 49.0922Z" fill="#922BE2"/>
<path d="M60.964 35.2928L61.1194 34.9522C61.3853 34.3662 61.1264 33.6755 60.5409 33.4085C59.9555 33.1416 59.2642 33.3989 58.9962 33.984L58.8409 34.3245C56.9723 33.8 54.99 34.6421 54.0702 36.3511C53.3809 38.1661 54.044 40.2163 55.6656 41.2838L54.3498 44.1678C54.1953 44.0073 54.0637 43.8263 53.9586 43.6299C53.7486 43.2581 53.7154 42.8121 53.8679 42.4133C54.0417 42.0341 53.9996 41.591 53.7578 41.2512C53.516 40.9114 53.1109 40.7267 52.6958 40.7666C52.2807 40.8067 51.9184 41.0653 51.7458 41.445C51.2936 42.4876 51.3417 43.6795 51.8762 44.6823C52.2278 45.3526 52.729 45.9329 53.341 46.3783L53.1861 46.7177C52.9188 47.3039 53.1771 47.9958 53.7634 48.2633C54.3495 48.5307 55.0414 48.2723 55.3088 47.6861L55.4586 47.3579C55.814 47.435 56.1765 47.4743 56.5403 47.4753C58.0888 47.547 59.5353 46.7027 60.2343 45.319C60.6875 44.2767 60.6398 43.0843 60.1045 42.0817C59.7531 41.4115 59.2519 40.8313 58.64 40.3859L59.9569 37.4998C60.4535 37.937 60.6422 38.6277 60.4372 39.2567C60.1698 39.843 60.4284 40.5351 61.0147 40.8024C61.601 41.0698 62.2931 40.8112 62.5604 40.2249C63.2491 38.41 62.5856 36.3602 60.964 35.2928ZM56.1929 37.3193C56.5338 36.7528 57.1789 36.4431 57.834 36.5314L56.6728 39.0764C56.1765 38.6389 55.9879 37.9483 56.1929 37.3193ZM58.1123 44.3509C57.7713 44.9172 57.1265 45.2267 56.4714 45.1388L57.6315 42.5964C57.7859 42.7568 57.9174 42.9378 58.0223 43.1344C58.2326 43.506 58.2657 43.9523 58.1123 44.3509Z" fill="#922BE2"/>
</g>
<defs>
<clipPath id="clip0">
<rect width="70" height="70" fill="white"/>
</clipPath>
</defs>
</svg>
