<svg width="70" height="70" viewBox="0 0 70 70" fill="none" xmlns="http://www.w3.org/2000/svg">
<path d="M64.3548 18.0645H63.2258V0H6.77419V18.0645H5.64516C2.5326 18.0645 0 20.5971 0 23.7097V57.5806C0 60.6932 2.5326 63.2258 5.64516 63.2258H20.3226V67.7419H15.8065V70H54.1936V67.7419H49.6774V63.2258H64.3548C67.4674 63.2258 70 60.6932 70 57.5806V23.7097C70 20.5971 67.4674 18.0645 64.3548 18.0645ZM37.5684 45.1613L36.7443 43.5118L39.5161 42.5884V40.6452C43.874 40.6452 47.4194 37.0987 47.4194 32.7419V19.7432L50.9779 25.4369L52.8931 24.2395L46.2903 13.6757L39.6876 24.2395L41.6027 25.4369L45.1613 19.7432V32.7419C45.1613 35.8545 42.6287 38.3871 39.5161 38.3871V36.4438L36.7432 35.5204L38.0508 32.9068L33.7061 28.5621L31.0936 29.8686L30.1691 27.0968H24.0256L23.1011 29.8686L20.4885 28.5621L16.1438 32.9068L17.4515 35.5204L14.6774 36.4438V42.5873L17.4504 43.5107L16.6251 45.1613H9.03226V11.2903H60.9677V45.1613H37.5684ZM35.3038 45.6806L33.2612 47.7231L30.8202 46.5026L30.3317 46.7214C30.1906 46.7848 30.0478 46.84 29.9034 46.8967L29.4056 47.0875L28.5406 49.6774H25.6519L24.788 47.0875L24.2902 46.8967C24.1457 46.84 24.0019 46.7837 23.8618 46.7214L23.3734 46.5026L20.9323 47.7231L18.8898 45.6806L20.1103 43.2395L19.8915 42.7511C19.8292 42.6121 19.7729 42.471 19.7184 42.3277L19.5287 41.8249L16.9355 40.9599V38.0712L19.5298 37.2062L19.7195 36.7035C19.7741 36.5601 19.8303 36.419 19.8926 36.2801L20.1114 35.7916L18.8909 33.3506L20.9334 31.308L23.3745 32.5286L23.8635 32.3097C24.0046 32.2463 24.1468 32.1912 24.2913 32.1344L24.7891 31.9437L25.653 29.3548H28.5417L29.4056 31.9448L29.9034 32.1355C30.0478 32.1923 30.1917 32.2485 30.3317 32.3108L30.8202 32.5297L33.2612 31.3091L35.3038 33.3517L34.0832 35.7927L34.3021 36.2812C34.3644 36.4201 34.4206 36.5612 34.4752 36.7046L34.6648 37.2073L37.2581 38.0723V40.961L34.6637 41.826L34.4741 42.3288C34.4195 42.4721 34.3633 42.6133 34.301 42.7522L34.0821 43.2406L35.3038 45.6806ZM60.9677 2.25806V9.03226H9.03226V2.25806H60.9677ZM5.64516 20.3226H6.77419V47.4194H17.4355L20.4874 50.4702L23.1 49.1636L24.0245 51.9355H30.168L31.0925 49.1636L33.705 50.4702L36.758 47.4194H63.2258V20.3226H64.3548C66.222 20.3226 67.7419 21.8425 67.7419 23.7097V54.1936H2.25806V23.7097C2.25806 21.8425 3.77796 20.3226 5.64516 20.3226ZM47.4194 67.7419H22.5806V63.2258H47.4194V67.7419ZM64.3548 60.9677H5.64516C3.77796 60.9677 2.25806 59.4478 2.25806 57.5806V56.4516H67.7419V57.5806C67.7419 59.4478 66.222 60.9677 64.3548 60.9677Z" fill="#922BE2"/>
<path d="M11.2903 4.51614H13.5483V6.77421H11.2903V4.51614Z" fill="#922BE2"/>
<path d="M15.8064 4.51614H18.0645V6.77421H15.8064V4.51614Z" fill="#922BE2"/>
<path d="M20.3225 4.51614H22.5806V6.77421H20.3225V4.51614Z" fill="#922BE2"/>
<path d="M27.0968 33.871C23.9843 33.871 21.4517 36.4036 21.4517 39.5161C21.4517 42.6287 23.9843 45.1613 27.0968 45.1613C30.2094 45.1613 32.742 42.6287 32.742 39.5161C32.742 36.4036 30.2094 33.871 27.0968 33.871ZM27.0968 42.9032C25.2296 42.9032 23.7097 41.3833 23.7097 39.5161C23.7097 37.6489 25.2296 36.129 27.0968 36.129C28.964 36.129 30.4839 37.6489 30.4839 39.5161C30.4839 41.3833 28.964 42.9032 27.0968 42.9032Z" fill="#922BE2"/>
<path d="M18.3953 13.8792L15.8065 16.468L13.2176 13.8792L11.6211 15.4757L14.2099 18.0645L11.6211 20.6533L13.2176 22.2499L15.8065 19.661L18.3953 22.2499L19.9918 20.6533L17.403 18.0645L19.9918 15.4757L18.3953 13.8792Z" fill="#922BE2"/>
<path d="M35 13.5484C32.5093 13.5484 30.4839 15.5738 30.4839 18.0645C30.4839 20.5552 32.5093 22.5807 35 22.5807C37.4907 22.5807 39.5161 20.5552 39.5161 18.0645C39.5161 15.5738 37.4907 13.5484 35 13.5484ZM35 20.3226C33.7547 20.3226 32.742 19.3099 32.742 18.0645C32.742 16.8192 33.7547 15.8065 35 15.8065C36.2454 15.8065 37.2581 16.8192 37.2581 18.0645C37.2581 19.3099 36.2454 20.3226 35 20.3226Z" fill="#922BE2"/>
<path d="M54.1936 33.871C51.7029 33.871 49.6775 35.8964 49.6775 38.3871C49.6775 40.8778 51.7029 42.9032 54.1936 42.9032C56.6843 42.9032 58.7097 40.8778 58.7097 38.3871C58.7097 35.8964 56.6843 33.871 54.1936 33.871ZM54.1936 40.6452C52.9483 40.6452 51.9356 39.6325 51.9356 38.3871C51.9356 37.1417 52.9483 36.129 54.1936 36.129C55.439 36.129 56.4517 37.1417 56.4517 38.3871C56.4517 39.6325 55.439 40.6452 54.1936 40.6452Z" fill="#922BE2"/>
</svg>
