<svg width="70" height="70" viewBox="0 0 70 70" fill="none" xmlns="http://www.w3.org/2000/svg">
<path d="M66.698 33.9062C66.1335 17.2584 52.7416 3.86654 36.0938 3.30203V0H33.9062V3.30203C17.2584 3.86654 3.86654 17.2584 3.30203 33.9062H0V36.0938H3.30203C3.86654 52.7416 17.2584 66.1335 33.9062 66.698V70H36.0938V66.6967C52.7328 66.1136 66.1136 52.7328 66.6967 36.0938H70V33.9062H66.698ZM35 64.5312C18.6903 64.5312 5.46875 51.3097 5.46875 35C5.46875 18.6903 18.6903 5.46875 35 5.46875C51.3022 5.4868 64.5132 18.6978 64.5312 35C64.5312 51.3097 51.3097 64.5312 35 64.5312Z" fill="#922BE2"/>
<path d="M41.8743 13.0787C39.9057 11.5921 37.4766 10.8302 35 10.9375C32.5075 10.8295 30.0628 11.6011 28.0876 13.1065L28.0831 13.0922C18.5132 16.1063 12.007 24.9834 12.0144 35.0168C12.0237 47.7021 22.3147 57.978 35 57.9688C45.0695 57.9771 53.9703 51.4259 56.9554 41.8091C60.7112 29.7095 53.9603 16.8577 41.8743 13.0787ZM29.5312 14.7284C31.1351 13.6214 33.0523 13.0592 35 13.125C36.9475 13.059 38.8647 13.6206 40.4687 14.7273V19.5296C39.9219 19.3858 39.375 19.1122 39.375 18.5938C39.375 17.9897 38.8853 17.5 38.2812 17.5H31.7187C31.1147 17.5 30.625 17.9897 30.625 18.5938C30.625 19.1122 30.0781 19.3856 29.5312 19.5296V14.7284ZM29.5312 21.7733C30.8463 21.6472 32.0073 20.8615 32.6134 19.6875H37.3865C37.9926 20.8615 39.1536 21.6472 40.4687 21.7733V22.9688C40.4687 25.9963 39.0359 29.5312 35 29.5312C30.964 29.5312 29.5312 25.9963 29.5312 22.9688V21.7733ZM38.102 32.5389L35 35.6409L31.897 32.538L32.3139 31.2442C33.1358 31.553 34.0365 31.7188 35 31.7188C35.9629 31.7188 36.863 31.5533 37.6845 31.2447L38.102 32.5389ZM21.9898 35.6048L20.8961 37.7923C20.8203 37.9442 20.7811 38.1116 20.7812 38.2812V50.1534C18.2626 47.7955 16.2963 44.778 15.183 41.2538C11.8758 30.7844 17.2872 19.6476 27.3437 15.6745V20.7813V22.9688C27.3437 26.0693 28.4856 28.6057 30.3766 30.1351L29.7915 31.9484L22.5367 35.0908C22.2995 35.1922 22.1058 35.3743 21.9898 35.6048ZM47.0312 51.9427C46.011 52.6667 44.9155 53.306 43.75 53.8452V48.125H41.5625V54.6875H41.6304C41.507 54.7291 41.3835 54.7706 41.2588 54.8101C36.8867 56.1911 32.3986 56.0506 28.3639 54.6875H28.4375V48.125H26.25V53.8433C25.1018 53.3099 24.0033 52.6724 22.9687 51.939V38.5394L23.7672 36.9381L30.3529 34.087L33.9062 37.6403V43.75H36.0937V37.6403L39.6466 34.0874L46.2317 36.9381L47.0312 38.5394V51.9427ZM49.2187 50.1549V38.2812C49.2206 38.112 49.1832 37.9447 49.1094 37.7923L48.0156 35.6048C47.8997 35.3743 47.7059 35.1922 47.4687 35.0908L40.2062 31.9484L39.6216 30.1365C41.5137 28.6072 42.6562 26.0702 42.6562 22.9688V20.7813V15.6774C48.4403 17.9695 52.9245 22.7492 54.8152 28.7343C57.3019 36.6067 54.8592 44.857 49.2187 50.1549Z" fill="#922BE2"/>
<path d="M8.74998 4.375V7.20302L1.86715 0.32019L0.320312 1.86703L7.20328 8.75H4.37498V10.9375H9.84373C10.4478 10.9375 10.9375 10.4478 10.9375 9.84374V4.375H8.74998Z" fill="#922BE2"/>
<path d="M69.6776 1.86497L68.1306 0.318268L61.25 7.19891V4.37499H59.0625V9.84374C59.0625 10.4478 59.5522 10.9375 60.1563 10.9375H65.625V8.74999H62.7926L69.6776 1.86497Z" fill="#922BE2"/>
<path d="M9.84372 59.0625H4.37497V61.25H7.19767L0.314697 68.133L1.86153 69.6798L8.74997 62.7914V65.625H10.9375V60.1563C10.9375 59.5522 10.4477 59.0625 9.84372 59.0625Z" fill="#922BE2"/>
<path d="M62.7968 61.25H65.625V59.0625H60.1563C59.5522 59.0625 59.0625 59.5522 59.0625 60.1563V65.625H61.25V62.7968L68.1306 69.6775L69.6775 68.1306L62.7968 61.25Z" fill="#922BE2"/>
</svg>
